<?xml version="1.0" encoding="UTF-8"?>
<svg id="exportSvg" xmlns="http://www.w3.org/2000/svg" xmlns:xlink="http://www.w3.org/1999/xlink" version="1.1" viewBox="0 0 668 511">
  <!-- Generator: Adobe Illustrator 29.3.1, SVG Export Plug-In . SVG Version: 2.1.0 Build 151)  -->
  <defs>
    <style>
      .st0, .st1, .st2 {
        fill: none;
      }

      .st3 {
        fill: #fa5946;
      }

      .st4 {
        fill: #e64537;
      }

      .st5 {
        fill: #fb5a48;
      }

      .st6 {
        fill: #c5231d;
      }

      .st7 {
        font-size: 14px;
      }

      .st7, .st8, .st9, .st10 {
        isolation: isolate;
      }

      .st7, .st8, .st10 {
        font-family: ArialMT, Arial;
      }

      .st7, .st10 {
        fill: #181818;
      }

      .st11 {
        fill: #ff6c55;
      }

      .st12 {
        fill: #ff9b7e;
      }

      .st8 {
        fill: #888;
        font-size: 11px;
      }

      .st13 {
        fill: #eb4a3a;
      }

      .st14 {
        fill: #e24033;
      }

      .st15 {
        fill: #fe5d4a;
      }

      .st16 {
        fill: #ff7c63;
      }

      .st17 {
        fill: #b61611;
      }

      .st18 {
        fill: #ff6e57;
      }

      .st19 {
        fill: #ffb596;
      }

      .st20 {
        fill: #ffad8f;
      }

      .st21 {
        fill: #ffae91;
      }

      .st22 {
        fill: #ff644f;
      }

      .st23 {
        fill: #ff8a6e;
      }

      .st24 {
        fill: #df3d30;
      }

      .st25 {
        fill: url(#linear-gradient);
      }

      .st26 {
        fill: #ff997c;
      }

      .st1 {
        stroke: #000;
        stroke-width: .9px;
      }

      .st1, .st2 {
        stroke-linejoin: round;
      }

      .st27 {
        fill: #ffa78a;
      }

      .st28 {
        fill: #aa0b08;
      }

      .st29 {
        fill: #ddd;
      }

      .st30 {
        clip-path: url(#clippath-1);
      }

      .st31 {
        fill: #cd2822;
      }

      .st32 {
        fill: #ffb092;
      }

      .st2 {
        stroke: #fff;
        stroke-linecap: round;
        stroke-width: .4px;
      }

      .st33 {
        fill: #d33027;
      }

      .st34 {
        fill: #fff;
      }

      .st35 {
        fill: #bd1d17;
      }

      .st36 {
        fill: #d63329;
      }

      .st9 {
        font-family: Arial-BoldMT, Arial;
        font-size: 22px;
        font-weight: 700;
      }

      .st37 {
        fill: #ffb899;
      }

      .st38 {
        fill: #ff7f64;
      }

      .st39 {
        fill: #ff9578;
      }

      .st40 {
        fill: #fd5c49;
      }

      .st41 {
        fill: #ff8166;
      }

      .st10 {
        font-size: 12px;
      }

      .st42 {
        fill: #b71712;
      }

      .st43 {
        fill: #ff7159;
      }

      .st44 {
        fill: #ffa386;
      }

      .st45 {
        fill: #ff8368;
      }

      .st46 {
        fill: #ffbb9c;
      }

      .st47 {
        clip-path: url(#clippath);
      }
    </style>
    <clipPath id="clippath">
      <rect class="st0" x="42" width="609" height="505.8"/>
    </clipPath>
    <linearGradient id="linear-gradient" x1="-609.1" y1="773.7" x2="-608.1" y2="773.7" gradientTransform="translate(103597 10126) scale(170 -13)" gradientUnits="userSpaceOnUse">
      <stop offset="0" stop-color="#fff0ce"/>
      <stop offset="0" stop-color="#ffebc9"/>
      <stop offset=".1" stop-color="#ffe5c4"/>
      <stop offset=".2" stop-color="#ffe0bf"/>
      <stop offset=".2" stop-color="#ffd2b2"/>
      <stop offset=".3" stop-color="#ffc1a2"/>
      <stop offset=".4" stop-color="#ffb193"/>
      <stop offset=".4" stop-color="#ff9d80"/>
      <stop offset=".5" stop-color="#ff876b"/>
      <stop offset=".6" stop-color="#ff6e57"/>
      <stop offset=".6" stop-color="#f95846"/>
      <stop offset=".7" stop-color="#e94839"/>
      <stop offset=".8" stop-color="#d9372c"/>
      <stop offset=".8" stop-color="#ca2620"/>
      <stop offset=".9" stop-color="#bc1c16"/>
      <stop offset=".9" stop-color="#af100c"/>
      <stop offset="1" stop-color="#a10001"/>
    </linearGradient>
    <clipPath id="clippath-1">
      <rect class="st0" x="42" y="99.8" width="609" height="373"/>
    </clipPath>
  </defs>
  <rect class="st34" x="42" width="609" height="511"/>
  <g class="st47">
    <text class="st9" transform="translate(42 22)"><tspan x="0" y="0">Food Recall by States in 2024</tspan></text>
    <text class="st7" transform="translate(42 49)"><tspan x="0" y="0">The darker a state is, the more frequent it is hit by food recall.</tspan></text>
    <rect class="st25" x="42" y="62" width="170" height="13"/>
    <text class="st10" transform="translate(42 88.8)"><tspan x="0" y="0">1</tspan></text>
    <text class="st10" transform="translate(192 88.8)"><tspan x="0" y="0">170</tspan></text>
    <g class="st30">
      <path class="st38" d="M443.8,333.5l2.5-.4,4.4-.3,4.4-.3h.2s4.3-.3,4.3-.3h.6c0,0,5.4-.6,5.4-.6h.1s5.2-.5,5.2-.5l3-.3.5,1.8.9,3.3v.5c.1,0,.4.9.4.9l1,3.4.8,2.9.5,1.6.2.9,1,3.5.7,2.4.2.8,1.1,4.2v.3c0,0,1.1,3.3,1.1,3.3l.9,1.6.8,2,1.1,1.3.5,1.9,1,2-1.5,1.5.2,1.1v1s-.5,3.1-.5,3.1v.2s1.4,3.4,1.4,3.4l-.2,3v1.8s1.2,1.5,1.2,1.5l.4,1.1-5.9.7h-.1s-6.5.8-6.5.8l-1.9.2-2.4.2-3.7.4h-1.2c0,0-4.6.5-4.6.5l-5.3.5-.3,1.9,1.4,1.7,1.6.8v3.9c.1,0-.8,1.9-.8,1.9l-1.7.6-3.3-2-.7-3.5-.9-.3-.9,2.6v1.9c0,0-3.5.4-3.5.4l-.6-5.2-.5-3.7-.2-1.7-.6-4.6-.5-3.7-.3-2.8v-4.8c.1,0,.2-1.2.2-1.2v-3.9c0,0,.2-5.1.2-5.1v-.9s0-4.3,0-4.3v-3.6c0,0,0-3,0-3v-4.6c.1,0,.1-.4.1-.4v-3.4c0,0,0-2.1,0-2.1v-1.7c0,0,.2-4.5.2-4.5l-1.3-1.4Z"/>
      <path class="st33" d="M487.5,387.1l-.4-1.1-1.2-1.5v-1.8s.2-3,.2-3l-1.4-3.4v-.2s.4-3.1.4-3.1v-1s-.2-1.1-.2-1.1l1.5-1.5-1-2-.5-1.9-1.1-1.3-.8-2-.9-1.6-1-3.3v-.3c0,0-1.2-4.2-1.2-4.2l-.2-.8-.7-2.4-1-3.5-.2-.9-.5-1.6-.8-2.9-1-3.4-.3-.9v-.5c-.1,0-1-3.3-1-3.3l-.5-1.8h1.5c0-.1,1.3-.3,1.3-.3l1.1-.2,3.3-.4h0s2-.2,2-.2h.4s1.8-.3,1.8-.3l3.5-.4,2.2-.3,1.5-.2h.8c0-.1,4.4-.7,4.4-.7h.8c0-.1,4.3-.8,4.3-.8l-2.3,4.5.2.4,3.1,1.8.7.5h.7c0,.1,1.3,0,1.3,0l1.6,2.5.5,1.1,2.1,2.5.5.8,2.8,1.4,1.8,1.9,1.4,1.1,1.1.6h.2c0,.1,1.4,1.3,1.4,1.3l-.2,1.2,1.3,1.5,1.2.5,1.9,1.2,1,.6,1.9,2.8.3,1.3.6,2.1,1.4.4,2.4,3.3v1.1c-.1,0,.5,1.5.5,1.5l3,.7.6.3-3.1,4.7h-.6c0,0,.4,2.3.4,2.3l-.5,3,.2,1-1.5,4.3.7.8v3.6s-3.1,0-3.1,0l-2.7-.7-1.5,1.3.6,2.1v3.4c0,0-1.4.3-1.4.3l-1-2.9-2.5.2h-.5s-1.5.1-1.5.1h-1.3c0,.1-5.5.5-5.5.5h-1.7c0,.1-1.1.2-1.1.2l-3.1.2h-1.6c0,.1-3.3.3-3.3.3h-.9c0,0-2.4.2-2.4.2h-1.2c0,0-5.9.5-5.9.5v-.2c-.1,0-2.2-3.7-2.2-3.7Z"/>
      <path class="st45" d="M402.5,212.9l.2,1.1v1c0,0,1.7,1.3,1.7,1.3l-1.1,2.6.3,1.3,1.3,3.6,1.6.8,1.9.4.9,1.8,1.9,1.8,1.8,2.6,1.7,1v1.2c.1,0,.2,1.5.2,1.5l-.8,2.2-.7.9-.2,2-1.2,1-3.4,1.2-2.8.8-.2,1.2-.4,1.4,1.9,2.3h0c0,0,0,2.2,0,2.2l-1.3,1.7v1.7c0,0-.8.9-.8.9l-1.7.5-.6,3.4h-.7c0,0-2.6-3.1-2.6-3.1h-2.4s-2.5.2-2.5.2h-1.9c0,.1-3.1.3-3.1.3h-.9s-4.1.3-4.1.3h-3c0,.1-1.9.2-1.9.2l-2.4.2h-2.6c0,0-2.3.2-2.3.2h-2.6s-1.7,0-1.7,0h-3.1s-3.1,0-3.1,0h-1.8c0,0-4.3,0-4.3,0l-1.3-2.3.5-.6.2-1.7-.7-2.2v-1.6s-.5-.5-.5-.5v-2.9c-.1,0-.8-1.7-.8-1.7l-1-.4-.3-2.2.5-1.7-.7-.9v-1.5c.1,0-1.4-1.1-1.4-1.1l-.9-2.4v-.9s-.2-2.4-.2-2.4l-.7-.6-.6-1-1.5-2.6,1.1-2.5.9-2.5-1-2.5.3-2-.8-1.5h1.5s4.1,0,4.1,0h2s4.2,0,4.2,0h.7s4.9,0,4.9,0h.7s4.3,0,4.3,0h2s2.9,0,2.9,0h3.3c0,0,1.6-.1,1.6-.1h4.6c0-.1.2-.1.2-.1l4.9-.2h1.1s3.8-.2,3.8-.2l3.6-.2h1.3c0,0,4-.3,4-.3Z"/>
      <path class="st26" d="M368.7,308.1v3.3s0,1.4,0,1.4v2.5s.8,4.8.8,4.8v.9c.1,0,.9,5,.9,5l.2,1.7.6,3.5h0c0,.1,0,6.7,0,6.7v3s0,3.2,0,3.2v4.6s0,3.6,0,3.6v4.4s-3-1-3-1l-2.1-1.1-2.8-2.1-1.8.8h-2.7s-.4-.7-.4-.7l-2.9,1-.4.3h-3.6s-.2,1-.2,1l-2.5.7-2.9-1.7.4-.8-1.2.6h-2.1c0,0-.8-1.5-.8-1.5h-.1c0,0-2.7,3.1-2.7,3.1l-.4-2.6-2,1.4-1.3-1.4-.9.2-1.3-1.4-2,1.9-1.7-.5-1.2-1.7-.6-2-2.6-.3-.7,1.1-2.2-1.1-1.8.2-2.2-1.1h-2.8c0-.1-.2-1.9-.2-1.9l-2.1-1.6-1,.7h-2.6c0,0-1.7-1.8-1.7-1.8l-1.8-.9v-2.7c0,0,.2-4.1.2-4.1v-2.2c0,0,.2-3.5.2-3.5v-2.8c.1,0,.3-3.8.3-3.8v-2.5c.1,0,.3-6.4.3-6.4l-6.2-.2-4.7-.3h-1.5s-6.2-.4-6.2-.4l-4.7-.3h-1.4c0,0-9.6-.8-9.6-.8l.5-7.2,10.8.8h.2s5.4.3,5.4.3l5.6.3h1.4c0,0,3.5.2,3.5.2l6.2.3h1s5.2.3,5.2.3h1s5.2.2,5.2.2l5.1.2h2.3c0,0,2.6.1,2.6.1h3.5c0,0,3.8.1,3.8.1h3.6s4.5,0,4.5,0h2.6s5.9,0,5.9,0h.4s2,0,2,0h3s1.4,0,1.4,0h3.8s.7,0,.7,0h4.4Z"/>
      <path class="st31" d="M578.7,219.7l-1.2,1.5-1,3h.2c0,0-1.2,2.1-1.2,2.1l1,1.2-1,1.6.3,2.4v.2c.1,0,1.6.4,1.6.4l.5,1.7,1.4.8,3,2.2-2.4,2-.7,1-.6,1.6-.7.5-1.9,1.4h-2c0-.1-1.7,2-1.7,2l-3.7.8-1.1.3h0s-3.5.8-3.5.8l-2.3.5-2.3.5-2.3.5-2.6.5h-.1s-6.8,1.3-6.8,1.3l-2.6.5h-.4c0,0-4.6.9-4.6.9l-1.3.2-4.9.9-.9.2-3.1.5-1.6.3-5.4.9-1.1.2-.6-3.4v-.8c-.1,0-.5-2-.5-2l-.6-3.5-.2-1.1-.4-2.3-.5-3v-.7c-.1,0-.6-3.2-.6-3.2h0c0-.1-.8-5.2-.8-5.2v-.2s-.8-5-.8-5l-.3-1.8,7.2-5.5.7,3.9,1.6-.3,5.7-1,1.4-.3,6.4-1.2,1-.2,4.8-.9,1.4-.3,6.7-1.4h.4c0,0,3.8-.8,3.8-.8l4.3-.9h.4c0,0,6.4-1.5,6.4-1.5l.9-.2,3.1,1.5,1.3,1.2.3,2.2,2.4,1.9h1.5c0-.1.8.7.8.7Z"/>
      <path class="st27" d="M348.3,228.8l.7.6.2,2.4v.9s.9,2.4.9,2.4l1.5,1.1v1.5c-.1,0,.6.9.6.9l-.5,1.7.3,2.2,1,.4.6,1.7v2.9c.1,0,.6.5.6.5v1.6s.7,2.2.7,2.2l-.2,1.7-.5.6,1.3,2.3.6.9,1.7,3.8h0s2.7,3.8,2.7,3.8h-.4s-4.9,0-4.9,0h-2.4s-2.5,0-2.5,0h-2.4s-3.7,0-3.7,0h-1.2s-4.9-.1-4.9-.1h-4.9c0,0-1.2-.1-1.2-.1h-3.7c0,0-2.5-.1-2.5-.1h-2.4c0,0-3.7-.2-3.7-.2h-1.2s-4.9-.2-4.9-.2h0s-6-.2-6-.2h-.1s-5.9-.3-5.9-.3h-.2s-6.2-.3-6.2-.3h-1c0,0-6.9-.5-6.9-.5l.3-5v-1.3c0,0,.3-3.7.3-3.7v-.8s.3-3.7.3-3.7l-6.1-.4h-.3s-7.8-.6-7.8-.6l-2.1-.2-5.1-.4.5-5.6.2-2.5.2-1.9.4-4.4.7-8.8.4-5.6,5.7.5,5.2.4,2.2.2,7.4.5,8.9.5,10.8.5,6.9.3h2.9c0,.1,7.9.3,7.9.3l2,1.7,1.6.7,2.1,1.1,1.1-1.4,2.2.3h1.6s1.9-.2,1.9-.2l1.5,1,1.6.6,2.2.8,1.8,2.6,2,.5Z"/>
      <path class="st3" d="M355.5,256.3h4.3s1.8,0,1.8,0h3.1s3.1,0,3.1,0h1.7s2.6,0,2.6,0h2.3c0,0,2.6-.2,2.6-.2l2.4-.2h1.9c0,0,3-.2,3-.2l4.1-.2h.9s3.1-.2,3.1-.2h1.9c0-.1,2.5-.3,2.5-.3h2.4s2.6,3,2.6,3h.7c0,0-.8,2-.8,2v.7s.2,2.3.2,2.3l.7,1.3.9,2.7.7,1,1.4,1.2,2.8,2.7,2.5,2.4.8,4.1,1.4.8,1-1.4,1.9.6,1.8,1.6-.5.5v1.6s-.8,1.9-.8,1.9v.2c0,0-.8,1.9-.8,1.9v2.5s1.2,1.2,1.2,1.2l.6.5,2.3,1.6.9,1.3,1-.5,2,1.3,1.9,1.6v1.6s0,0,0,0l1.3,2.4-.6.9v1.2s1.5,3,1.5,3l.7.4,2.1.2.4.5v2.3c0,0-.5,2-.5,2l-1.7.4-.8,2h-.8c0,0-.6,0-.6,0v2.4c.1,0-.7,2.2-.7,2.2l-1,2.8-2.6.2-3.8.3h-1c0,0,2-3,2-3l1.1-1.1v-1.7c0,0-1.8-1.5-1.8-1.5l-4.1.2h-2.4c0,.1-3.9.3-3.9.3l-3.2.2h-.5s-2.5,0-2.5,0l-5.1.3h-.3s-4.3.2-4.3.2h-2.8c0,0-.9.1-.9.1l-5,.2h-.3s-3.1,0-3.1,0h-3.2c0,0-2.4.1-2.4.1h-6.2c0,.1,0-2.3,0-2.3v-1.4s0-3.3,0-3.3v-.9s0-4.1,0-4.1v-.4s0-4.2,0-4.2v-.3s0-5.3,0-5.3v-.3s0-4.8,0-4.8v-1.3s0-3.7,0-3.7v-1.6s0-2.9,0-2.9v-1s0-.7,0-.7l-1.9-.6-2.2-3.1-1.5-1.7.5-1.2,1.9-3-1.3-1.1-.9.5-2.5-2-2.7-3.8h0s-1.7-3.8-1.7-3.8l-.6-.9Z"/>
      <path class="st45" d="M101.6,204l6.5,1.7h.4c0,0,11.6,2.9,11.6,2.9l12.1,2.8h0s11.8,2.6,11.8,2.6l8.6,1.8,7.9,1.6,2.5.5-2.7,14.1-2.4,12.5-.6,3-1,5.1-2.4,12.3-.3,1.5-1.2,6.1-1.5,7.7-1.6,8.6-.4,2.2-1.7,9.3-1.7,2.2h-1c0,0-1.1-2.1-1.1-2.1l-2.2-.6-2,.3-.4,2.3v4.9c0,0-.7,1.6-.7,1.6l.5,2.5-.3,2.7-1.1,1.8-9.2-13.8-1.8-2.7-6.2-9.3-5.5-8.2-5.7-8.7-5.1-7.6-6.1-9.2-1.4-2.1-2.1-3.2-2.6-3.9-.5-2.2v-.6c.1,0,.3-.8.3-.8l.5-2.1.5-1.8,1-3.9,2.9-10.9,2.4-9.6,3-11.3Z"/>
      <path class="st17" d="M457.7,400.6l.9-1.9v-3.9c-.1,0-1.7-.8-1.7-.8l-1.4-1.7.3-1.9,5.3-.5,4.6-.4h1.2c0,0,3.7-.5,3.7-.5l2.4-.2,1.9-.2,6.5-.8h.1s5.9-.7,5.9-.7l2,3.7v.2c.1,0,6.1-.4,6.1-.4h1.2c0,0,2.4-.3,2.4-.3h.9c0,0,3.3-.2,3.3-.2h1.6c0-.1,3.1-.3,3.1-.3h1.1c0,0,1.7-.2,1.7-.2l5.5-.4h1.3c0-.1,1.5-.2,1.5-.2h.5s2.5-.2,2.5-.2l1,2.9,1.5-.3v-3.4c0,0-.7-2.1-.7-2.1l1.5-1.3,2.7.7h3.1s.4,2.9.4,2.9l1.4,3.5,3.4,7.9,1.9,3.2,2.3,3.7,3.7,4.6,2.4,2.6.9,1.7-.7.8v2.2c.1,0,1,2.2,1,2.2l2,3.1,2.2,4,2.3,3.9,2.2,3.9,1,2.3.6,6.8.3,4.9.4,2.9-1.4,1-.7,3.2v2.8s1.2-.9,1.2-.9h.3c0,.1-1,3-1,3l-1.7-.4-3.3,1.3-1.5-.2-2.8,1.2-1.4-1.2.4-2-3-4.3-2.6-1.3-2.2-1-.8.8-1.9-3.1-1.1-3.3-2.5-2-1.1.3-.7-2.1.7-2-.6-2.6-1.2.8-.2,2.2-.7-.2-1.6-2-3.1-4.6-1.1-1.1-1-1.3,1.6-2.5,1.7-3-3.6-2.1,1.2,2.8-.4,1.6-1.3.3-1.7-2.4v-1.9s-.7-2.1-.7-2.1h.3s.3,0,.3,0l1.1-3.9-.4-3.7-1.8-4.1-1.2-2.2h-2.1s-2.3-1.3-2.3-1.3l-.9-1.8-2.4-1.1-.4-2.1-1.7-.6-1.6-2.1-4.7-2.2h-1.1c0,0-2.4.2-2.4.2l-.7,2.1-2.3,1-3.3,2.6-4.8,1.7-2.4-3.3-2-.8-6-3.3-5.1-1-5,.3-1.4.4-7.3,2ZM540,472.8l.6-1.4,3.6-2.8,2,.5.8,1.2-3.3,1.1-2.1,1.2h-1.6Z"/>
      <path class="st44" d="M370.9,356.8v-4.4s0-3.6,0-3.6v-4.6s0-3.2,0-3.2v-3s0-6.5,0-6.5h0c0-.1-.6-3.6-.6-3.6l-.2-1.7-.8-5v-.9c-.1,0-.8-4.8-.8-4.8h6.2c0-.1,2.4-.2,2.4-.2h3.2c0,0,3.1-.2,3.1-.2h.3s5-.2,5-.2h.9s2.8-.1,2.8-.1l4.3-.2h.3s5.1-.3,5.1-.3h2.5c0,0,.5,0,.5,0l3.2-.2,3.9-.2h2.4c0-.1,4.1-.4,4.1-.4l1.8,1.5v1.7c0,0-1.2,1.1-1.2,1.1l-2,3.1h1c0,0,3.8-.3,3.8-.3l2.6-.2,1.1,1.3-1.4.3-.4,2-1.5.4.6,2.9h-1.5s0,2,0,2h0c0,0-1-.3-1-.3l.8.7-.8,1.8v2.1c0,0-1.5,1.9-1.5,1.9l.2,1.9-1.2.5-1.1,3h-.8c0,0,.2,1.6.2,1.6v1.4c.1,0-2.9,2.5-2.9,2.5l-1.4,2.2h0s.9,1.3.9,1.3l-2.3.9.5,2.8-.3,1.7h-1.6s0,1.5,0,1.5l.2.4,1.8,4.4-.8,3.1h0c0,.1-1.2.2-1.2.2h-2.1c0,.1-.3.1-.3.1l-7.2.3-7.9.2h-3.2c0,0-3,.2-3,.2h-3c0,0-.4,0-.4,0h-3.4c0,0-.1,0-.1,0h-2.7c0,0,0-4,0-4v-3.6c0,0-1.8-.6-1.8-.6l-2.5.7-1.2-1.2Z"/>
      <path class="st35" d="M273.1,312.5l9.6.7h1.4c0,0,4.7.4,4.7.4l6.2.4h1.5s4.7.3,4.7.3l6.2.2-.2,6.4v2.5c-.1,0-.3,3.8-.3,3.8v2.8c-.1,0-.3,3.5-.3,3.5v2.2c0,0-.3,4.1-.3,4.1v2.7c0,0,1.7.9,1.7.9l1.7,1.9h2.6c0,0,1-.7,1-.7l2.1,1.6.2,1.8h2.8c0,.1,2.2,1.3,2.2,1.3l1.8-.2,2.2,1.1.7-1.1,2.6.3.6,2,1.2,1.7,1.7.5,2-1.9,1.3,1.4.9-.2,1.3,1.4,2-1.4.4,2.6,2.7-3h.1c0,0,.8,1.4.8,1.4h2.1c0,0,1.2-.6,1.2-.6l-.4.8,2.9,1.7,2.5-.7.2-.9h3.6s.4-.4.4-.4l2.9-1,.4.7h2.7s1.8-.8,1.8-.8l2.8,2.1,2.1,1.1,3,1,1.2,1.2,2.5-.7,1.7.6v3.6c0,0,.2,4,.2,4v2s0,2.7,0,2.7v4.4c0,0,.1,2.8.1,2.8l.4,3.1,1.6,1.9,1,2.3-.3,1.4,2.1,3.2.8,2.6h.6c0-.1.5,2.2.5,2.2l-.5,2.2-.7,2.5-1.3,1.8v2.5c-.1,0,.4,2.3.4,2.3v2.8c-.1,0-1.7,2.7-1.7,2.7l-.9,1,1.2,1.5-2,.2-4.4,1.8h-.2c0,.1-1.7.3-1.7.3l-2.9.3.5-3.3h-1.5s-1.4,1.2-1.4,1.2l-1.1,1.7,1.4.8.2,2.7-2.1,1.5-.6,1.1,3.5-3.2.2.9-3.9,2.9-3.3,3-1.6.6-3.8,2.3-5.1,2.5-2,1.4-.8,1-2.4,1.3-2.8,2.3-2.5,3.1-2.3,3.7-1.7,4.2-.4,4.3,1.1,5.3.8,2.7h-.3s-.9-2.7-.9-2.7l-.9-2.9v-4.5c-.1,0,.2-2.3.2-2.3l1.5-4.2,1.9-3.2.6-1.7,2-2.5,1.2-.6,2.6-2.5-1.8-1.3-.3,1.3v.6c0,0-.2.8-.2.8l-1.6,1.3-1.2-.9-2.4,1.5,2.4.5-1.5,2-4.1.4-.6.4,3.2,2.1-1,2-1.1,3.2-1.4-.4-1.6,1.1,1.2.8,1.5-.4-.7,7.8.3,1.6,1.1,2.7.9,2-.2,2.4,1.8.6v1.6c0,0-4.8.9-4.8.9l-1.6-1.9-2.8-.6-2.2.2-2.7-.5-2.8-2.2-1.5-.5-1.1.3-2-2-3.7-.9-.7-2.1-1.2-3.9-2.2-2.7v-3.4s-.6-1.1-.6-1.1l.4-2.1-1.5-2.3-1.3-.2-2.2-2.2v-1.4c-.1,0-2.4-3.6-2.4-3.6l-1.6-.8-1-1.3-.5-2.1-1.9-3.4v-1.1s-1.7-3-1.7-3v-2c-.1,0-1.6-2.3-1.6-2.3l-2.6-2-.6-1.3-2.5-1.3.2-1.3-1.4-.6-1.3-1.7-3.6-.2-2.6-.6-1.7.2-2.5-1.4-.9,1.5-1.3-.3-2.3.5-1.9,3-1.1,4.2-3.1,2.2-.3,1h-2c0-.1-1.8-1.1-1.8-1.1l-1.5-1.7-2-.7-.8-1.1-3-1.1-5.5-5.1-1.7-4.3.2-3.6-1.8-3.3-.3-2.6-1-1-2.4-2.6-2.3-1.1-1.8-2.1-.4-1.4-2-1.4-2.4-3.4-2.4-1.4-1.7-4.1-1.7-.9-1.1-1.3.4-1.9,2.9.3,4.6.5,13,1.3h.8c0,0,9.9,1,9.9,1h.6s3.1.3,3.1.3l4.8.4,3.2.2v-1.2c0,0,.6-6.3.6-6.3l.5-6.3.5-6.2.2-2.6.3-3.6.6-6.9h0c0-.1.5-6.4.5-6.4l.3-3,.2-3.3.5-6.4v-1.7c.1,0,.5-4.5.5-4.5l.5-6.5h.5Z"/>
      <path class="st38" d="M149.4,288.8l1.6-8.6,1.5-7.7,1.2-6.1.3-1.5,2.4-12.3,1-5.1.6-3,2.4-12.5,2.7-14.1,10.8,2,8.7,1.6h.6c0,0,6.3,1.1,6.3,1.1l4.8.8-1,6-.8,4.7-.6,3.6,10.6,1.6h.5c0,0,10.1,1.5,10.1,1.5l-.6,4.9-.9,6.3-1.1,8.1-.3,2.3-.3,1.9-1.8,12.4-.5,5-.5,3.9-.8,5.7-1,7-10.7-1.5-8.4-1.3-6.7-1-13.3-2.3-4-.7-12.8-2.4Z"/>
      <path class="st20" d="M273.6,305.3l-.5,7.2h-.5s-.5,6.4-.5,6.4l-.3,4.5v1.7c-.1,0-.6,6.4-.6,6.4l-.2,3.3-.3,3-.5,6.3h0c0,.1-.6,7-.6,7l-.3,3.6-.2,2.6-.5,6.2-.5,6.3-.5,6.3v1.2c0,0-3.2-.2-3.2-.2l-4.8-.4-3.1-.2h-.6s-9.9-1-9.9-1h-.8c0,0-13-1.4-13-1.4l-4.6-.5-2.9-.3-.4,1.9,1.1,1.3-9.3-1.1-11-1.4-.8,6.5-10.2-1.4,2.2-15.6.7-5,.9-6.2,1.1-8.1,1.6-11.5.8-5.5,2.1-15,2-14.3,7.5,1,10.1,1.3h.7c0,0,10.7,1.4,10.7,1.4l5.3.5,3.3.3,5.6.6h.7c0,0,13,1.2,13,1.2l10.4.8h1Z"/>
      <path class="st39" d="M368.7,308.1h-4.4s-.7,0-.7,0h-3.8s-1.4,0-1.4,0h-3s-2,0-2,0h-.4s-5.9,0-5.9,0h-2.6s-4.5,0-4.5,0h-3.6s-3.8,0-3.8,0h-3.5c0,0-2.6-.1-2.6-.1h-2.3c0,0-5.1-.2-5.1-.2l-5.2-.2h-1s-5.2-.3-5.2-.3h-1s-6.2-.3-6.2-.3h-3.5c0-.1-1.4-.2-1.4-.2l-5.6-.3-5.4-.3h-.2s.4-5.7.4-5.7l.2-3.7v-1.4c0,0,.5-7.6.5-7.6h0c0,0,.3-5.1.3-5.1v-1.2c0,0,.4-5.1.4-5.1v-1.2c0,0,.4-6.3.4-6.3h0c0,0,.4-6.3.4-6.3l6.9.4h1c0,0,6.2.4,6.2.4h.2s5.9.3,5.9.3h.1s6,.2,6,.2h0s4.9.2,4.9.2h1.2s3.7.2,3.7.2h2.4c0,0,2.5.1,2.5.1h3.7c0,0,1.2.1,1.2.1h4.9c0,0,4.9.2,4.9.2h1.2s3.7,0,3.7,0h2.4s2.5,0,2.5,0h2.4s4.9,0,4.9,0h.4s2.5,2,2.5,2l.9-.5,1.3,1.1-1.9,3-.5,1.2,1.5,1.7,2.2,3.1,1.9.6v.7c0,0,0,1,0,1v2.9s0,1.6,0,1.6v3.7s0,1.3,0,1.3v4.8c0,0,0,.3,0,.3v5.3s0,.3,0,.3v4.2c0,0,0,.4,0,.4v4.1c0,0,0,.9,0,.9Z"/>
      <path class="st21" d="M443.8,333.5l1.3,1.4v4.5c-.1,0-.2,1.7-.2,1.7v2.1s0,3.4,0,3.4v.4s-.1,4.6-.1,4.6v3s0,3.6,0,3.6v4.3c0,0,0,.9,0,.9v5.1c-.1,0-.2,3.9-.2,3.9v1.2s-.2,4.8-.2,4.8l.3,2.8.5,3.7.6,4.6.2,1.7.5,3.7.6,5.2-1.3.8-3.9-.5-1.4-.2-4.2,1.6-.9-.9v1c.1,0-2.1,1.9-2.1,1.9l-1.1-.6-1.2-3.2-2.1-2.9,1.2-4.9h-1.3c0,0-5.2.4-5.2.4h-1.1c0,0-2.4.2-2.4.2h-.2s-3.2.2-3.2.2l-2.9.2h-1.4c0,0-5.6.3-5.6.3l.4-2.8.8-1.2v-3.7c-.1,0,1.2-1.7,1.2-1.7v-1.3c0,0,.9-.2.9-.2l.8-1.8,2.4-3.7h0c0,0-.3-.1-.3-.1l-.9-1.2h1.6c0-.1,1.1-1.8,1.1-1.8l-1.3-.5-1.4-1.6.5-1.2.3-.2-1.4-.8-.4-5.2h0c0-.1.8-3.2.8-3.2l-1.8-4.4-.2-.4v-1.5c0,0,1.7,0,1.7,0l.3-1.7-.5-2.8,2.3-.9-.9-1.2h0s1.4-2.3,1.4-2.3l3-2.5v-1.4c-.1,0-.4-1.7-.4-1.7h.8c0,0,1.1-2.9,1.1-2.9l1.2-.5-.2-1.9,6.8-.4h.9c0,0,3.4-.3,3.4-.3h1.8c0-.1,2.1-.3,2.1-.3l2.3-.2h.4s4.8-.4,4.8-.4h.2s1.9-.2,1.9-.2Z"/>
      <path class="st22" d="M402.5,212.9l-4,.2h-1.3c0,0-3.6.2-3.6.2l-3.8.2h-1.1s-4.9.2-4.9.2h-.2s-4.6.1-4.6.1h-1.6s-3.3.1-3.3.1h-2.9c0,0-2,0-2,0h-4.3c0,0-.7,0-.7,0h-4.9s-.7,0-.7,0h-4.2s-2,0-2,0h-4.1s0-5,0-5v-5s0-5,0-5v-1.3s0-2.5,0-2.5v-2.5s0-4.2,0-4.2l-.2-.8-2.1-1.2-1.5-2.5v-.8c0,0,1.8-1.4,1.8-1.4l.9-2.7v-1.2c-.1,0-.3-4.4-.3-4.4l-1.3-2.2-.5-2.1h0s-.3-7.5-.3-7.5v-1.3s-.2-3.7-.2-3.7l-.4-2.5-1.5-3.9-.9-3.2v-.3s0-4.9,0-4.9l.6-2-1.2-4.5h7.9c0,0,10.3,0,10.3,0h1.6s0-5.5,0-5.5l1.9.2,1.3,1,1.4,5.8v1.5s2.4,1.1,2.4,1.1l1.8.6,3.8.3.5,1.6,3.1-.5,2.4-1.4,1.1.2,3.5,1.1.7,1.4,1.4-.2,1.5,3.2.7-1.8,1.2-.3,1.6,1.3,2,.8.9,1.2,2.8.8,1.7-.6,2-1.6,1.4-.8,1.3,2h3.7c0,0,2.3-.5,2.3-.5l2.6,1.6,1.1-.6,1.6.7-3.6,2.2-5.3,2.1-4.5,3.7-3.1,3.9-4.1,4-2.9,2.3.8,1.1-1.2-.4-1.5,1.1v3.5c.1,0,.3,3.7.3,3.7l-.6,2.1-3.4,1.8-1.3,2.4-.4,1.2,2.5,2.8-.9,2.1v1.2c0,0-.4,1.9-.4,1.9l.3,3.1-.3,1.7.8.5,2,2,2.3.3.8,1.2,1.6.6,1.3.6,1.2,2.4,3.2,2.3,1.4.5,1.6,1.9.4,1.7.5,3.2Z"/>
      <path class="st40" d="M409.2,226.9l-.9-1.8-1.9-.4-1.6-.8-1.3-3.6-.3-1.3,1.1-2.6-1.6-1.3v-1c0,0-.3-1.1-.3-1.1l-.5-3.2-.4-1.7-1.6-1.9-1.4-.5-3.2-2.3-1.2-2.4-1.3-.6-1.6-.6-.8-1.2-2.3-.3-2-2-.8-.5.3-1.7-.3-3.1.3-1.9v-1.2c0,0,1-2.1,1-2.1l-2.5-2.8.4-1.2,1.3-2.4,3.4-1.8.6-2.1v-3.7c-.1,0-.3-3.5-.3-3.5l1.5-1.1,1.2.4h2c0,.1,2.6-.9,2.6-.9l3.1-1.7h1.3s2.5-1.5,2.5-1.5l.9.8-1.2,2.1-.3,2.5,1.7-1,2.1.8,1.3.2,2.1.8,1.1,2.3,1.9.4,8.5,1.8,1,.5.6.3,2.5.7,5.7.9.8,2,2.2.7.7.7-.4,4.6h2.2s-.8,2.2-.8,2.2l1.6,1.3-.3,1.7-1.3.3-2,4.3.8,2,1.6-1.7.2-.5,1-2.4,2-1.1,1.4-3.9,2-1v1.9s-1.2,1.8-1.2,1.8l-1.5,4.4-.8,1.8-.5,3.3.4,2.1-1.2,1.2-.6,3.1.5,3-.7,2.1-.9,4.3.3.8.3,2.8.9,2.2.4,2.5.3,2.5-4.2.3h-1.1c0,.1-4.2.5-4.2.5h-.7c0,0-1.7.2-1.7.2l-4.4.2h-.4s-4.6.2-4.6.2h-.9c0,0-5.2.3-5.2.3h-2.3Z"/>
      <path class="st5" d="M473.9,330.8l-3,.3-5.2.5h-.1s-5.4.5-5.4.5h-.6c0,0-4.3.4-4.3.4h-.2s-4.4.3-4.4.3l-4.4.3-2.5.4-1.9.2h-.2s-4.8.4-4.8.4h-.4s-2.3.2-2.3.2l-2.1.2h-1.8c0,.1-3.4.4-3.4.4h-.9c0,0-6.8.5-6.8.5l1.5-1.9v-2.1c0,0,.9-1.8.9-1.8l-.8-.7,1,.4h0c0,0,0-2.1,0-2.1h1.5s-.6-2.8-.6-2.8l1.5-.4.4-2,1.4-.3-1.1-1.3,1-2.8.8-2.2v-2.4c-.1,0,.5,0,.5,0h.8c0,0,.8-.2.8-.2l5.8-.4h0s.1,0,.1,0l3.4-.2h.3s5-.4,5-.4l-.4-2.6,4.3.2h.6c0,0,3.5-.4,3.5-.4l2.5-.2h.6c0,0,3.4-.5,3.4-.5h2.3s1.7-.4,1.7-.4h2.3c0,0,2.6-.2,2.6-.2h2.1c0-.1,4-.5,4-.5l1.6-.3h.2s3.4-.3,3.4-.3h2.2c0,0,0,0,0,0l5.9-.6h.4c0,0,2.7-.3,2.7-.3h.7c0,0,2.9-.6,2.9-.6l2.3-.3,5.5-.7,1.7-.2,2.5-.4,3.5-.5h.6c0,0,1.1-.2,1.1-.2l3.6-.8,2-.3-.3.4-.2,2.9-1.9,1.8v.3c-.1,0-1.4,2.5-1.4,2.5l-1.8-.5-2,1.5-.8,1.5-1.2-.7-3.2,1.8-.4,2.3-1.6.5-1.7,1.1v.3s-2.5,2.3-2.5,2.3l-1.9.2-1.2.3-1.9,1.7h-.1c0,0-.5,2.5-.5,2.5l-2.9,1.6v3.2s-3.4.4-3.4.4l-1.8.2h-.4s-2,.3-2,.3h0s-3.3.4-3.3.4l-1.1.2h-1.3c0,.1-1.5.3-1.5.3Z"/>
      <path class="st13" d="M515.8,301.9l.3-.4-2,.3-3.6.8-1.1.2h-.6c0,0-3.5.6-3.5.6l-2.5.4-1.7.2-5.5.7-2.3.3,2.3-1.3,2.9-1.5,1.1-1.8,2.1-.9v-1.2c0,0,1.3-2.3,1.3-2.3l1.6-1.3h0c0-.1,2.5-1.8,2.5-1.8l3.3-4,.5.3.3,2.2,2.4,1.4,2.1.2,1.9-2.3,1.8,1.2,2.6-1.2,1.3-1-.3-1.1,1.8.2,1.5-1.4,1,.6,1.7-1.6.6-1.8-1-.8,1.1-2.9,1-1.3.8-1.8.4-2,.9-1.2.8-2.6v-2.4s2.3,1.6,2.3,1.6l1.9.3.8-1.1,1.1-4.4.4-1.4,1.6,1,.5-1.9,1.8-1.5.4-1.4.3-.5.9-1.3-.2-4.4,1.5.8,2.5,1.4,2.6,1.5.7-2.9h.4c0-.1,2.7.9,2.7.9l.4,2.1h1.5s2.6,1.3,2.6,1.3l1.1,1.2.2.7h0c0,0-.3,1.3-.3,1.3l-.3,1.1-1,.2-.5,2.1.6,2.2,2.9-1,.4,1.4,2.1,1.3,2.5-.3,1.3,1.4,3.6,1.4-.3,3.2-.2,1.1-2.1-.3-1.5-1.6-3.5-2.4,3.1,2.8,2.2,1.9,2.1.8-.2,1.9.6,1.6-1.2.9,1.3.9,1.3.4-.7,2.1-3-1.3v-.7c0,0-3.3-.7-3.3-.7l-.7.5,3.3.7.3,1.2,2.4,1.4.9.3h.9s1.6-1,1.6-1l2-.3,2.6,4.9-2.8.6-2.2.5-2,.4h-.5c0,.1-4.2,1-4.2,1h0c0,0-2.8.6-2.8.6l-1.5.3-5.2,1-1.5.3-1.6.3-3.1.6-1.5.3-3.1.6h-.7c0,.1-3.9.8-3.9.8l-.9.2-1.4.2-1.4.3h-.5c0,0-2.3.4-2.3.4l-3.5.6h-.3c0,0-4.3.6-4.3.6l-2,.2-2.6.4h-.7c0,0-5.1.7-5.1.7l-3.7.4ZM579,270.2l.4-.7,4.1-1.4-.7,2.4-.9.3-.9,2.2v2.5c0,0-.4,1.7-.4,1.7l-.7,4.1-1.5,1.3-1-1.7v-4.4c0,0,1.8-6.3,1.8-6.3Z"/>
      <path class="st15" d="M137.2,315.9l1.1-1.8.3-2.7-.5-2.5.6-1.6v-4.9c0,0,.5-2.3.5-2.3l2-.3,2.2.6,1.1,2.1h1c0,0,1.7-2.1,1.7-2.1l1.7-9.3.4-2.2,12.8,2.4,4,.7,13.3,2.3,6.7,1,8.4,1.3,10.7,1.5-2,14.3-2.1,15-.8,5.5-1.6,11.5-1.1,8.1-.9,6.2-.7,5-2.2,15.6-17-2.5-7.4-1.2-3.3-1.9-11.6-6.7-10.4-6.1-16.3-9.8.4-1.7,1.3-1.2h2.2c0-.1,1.1-1.2,1.1-1.2v-2.7c0,0-2.1-1.4-2.1-1.4l.8-2.4-.2-1.9,1.3-.2,2.2-3.5.2-3.3,1.6-2,2.4-.9,1.7-1.6-1.9-2.6-.8-4-1.4-2.5.4-1.9Z"/>
      <path class="st18" d="M428.1,312.9l.8-2,1.7-.4.4-2v-2.3c0,0-.3-.5-.3-.5l-.5-1.2,1.7-2.4h.8c0,0,0,0,0,0l4.3,1.8h.8c0,.1.6-1.2.6-1.2l-1.2-1.8,1-2.1.7.2,3.2-1.7-.9-.9-.4-1.3,1.3-2.1,1-1.6,2.6-.2,2.8-.9,1.7.5.4.3,2.3.9.9-1.9,1.7-1.2,2,2.1,1.2-1.2.3-1.9.2-1.1,1.3-1,.9,1.7,3.1.5.6-.2.2-.3v-2.2s1-1.7,1-1.7l1.6-1.5,2-2.3v-.9s-.5-1.7-.5-1.7l1.3-.5,1.5.5,1.8-1.3,2.3-.7v-1c0,0-.8-.5-.8-.5l-.3-1.8.5-1.1,2.2.2,1.3-.5,2.2.8,1.2,2v.7c.1,0,2.1.5,2.1.5h1.6c0-.1,2.5,1.4,2.5,1.4h.6s1.3-1.2,1.3-1.2l2.9.9,1.4-.3.9-1.3,1.6-1,1.2,2.5,1.8.7,1,1.1.2,2.5v1.6c-.1,0,1.8,2.5,1.8,2.5l1,1.2,1.2,1.5,1.6,1.5,2.9.9-3.3,4-2.5,1.7h0c0,.1-1.6,1.4-1.6,1.4l-1.3,2.3v1.2c0,0-2.1.9-2.1.9l-1.1,1.8-2.9,1.5-2.3,1.3-2.9.5h-.7c0,0-2.7.4-2.7.4h-.4c0,0-5.9.6-5.9.6h0s-2.2,0-2.2,0l-3.4.3h-.2s-1.6.3-1.6.3l-4,.4h-2.1c0,.1-2.6.2-2.6.2h-2.3c0,0-1.7.5-1.7.5h-2.3s-3.4.4-3.4.4h-.6c0,0-2.5.3-2.5.3l-3.5.4h-.6c0,0-4.3-.2-4.3-.2l.4,2.6-5,.4h-.3s-3.4.3-3.4.3h-.1s0,0,0,0l-5.8.4h-.8Z"/>
      <path class="st37" d="M348.3,214.2h-1.5s.8,1.5.8,1.5l-.3,2,1,2.5-.9,2.5-1.1,2.5,1.5,2.6.6,1-2-.5-1.8-2.6-2.2-.8-1.6-.6-1.5-1-1.9.2h-1.6s-2.2-.3-2.2-.3l-1.1,1.4-2.1-1.1-1.6-.7-2-1.7-7.9-.2h-2.9c0-.1-6.9-.4-6.9-.4l-10.8-.5-8.9-.5-7.4-.5-2.2-.2-5.2-.4-5.7-.5.6-6.8v-.4s.5-5.1.5-5.1l.3-4.1v-.6s.5-5.6.5-5.6l.5-6.1.4-3.1.8-9.6v-.9c0,0,10.5.8,10.5.8h.5s9.4.7,9.4.7h0s14.8.9,14.8.9h.1s6.2.3,6.2.3h1.6c0,0,7.1.3,7.1.3h2.8c0,.1,7.1.3,7.1.3h.3s7.5.1,7.5.1h6.6c0,0-.9,2.8-.9,2.8l-1.9,1.4v.8c0,0,1.6,2.5,1.6,2.5l2.1,1.2.2.8v4.2s0,2.5,0,2.5v2.5s0,1.3,0,1.3v5s0,5,0,5v5Z"/>
      <path class="st43" d="M132.2,211.3l-12.1-2.8-11.6-2.8h-.4c0,0-6.5-1.8-6.5-1.8l-9-2.4-5.8-1.6-8.6-2.6-9.6-2.7-2.9-.8-3.1-.8-4-1.3-1-2,.6-4.8,1-1.7-.5-4.2,1.2-1.3,2.3-4,3.1-4.2,1.7-3.3,2.2-5.5,2.2-5.1.7-2.4,1.5-2.8,3.2-8.2.2-1.8,1.5-3.9,1.1-.9,3.4-.5,1.3,2.1h1.5s1,.1,1,.1l1.6,2,.2,3.6-.2,1.8.4,1.8,3.8,2.1,3.6-.5.7-.5,3.4.5.7.6,4.8,2.2,2.9-.7,1.3.9,2.9.4,2.4-.7h1.4s4.5,0,4.5,0l3,.5,1.6-.6,9.6,2.3h.2s3.6.9,3.6.9l1.2.3,5.5,1.3.8,2.3,1.7,1.5.8,2.6-3.3,4.4-1.5,2.5-1.9,3-1.7,1-1.6,2.6-1,.8-.5,2.5,1.1.5,1.7,2.2-1.7,3.7-1.1,2.7-2.1,9.2-3.3,14.5Z"/>
      <path class="st13" d="M437.9,187.5l-1.6-1.3.8-2.1h-2.2s.4-4.6.4-4.6l-.7-.7-2.2-.7-.8-2-5.7-.9-2.5-.7-.6-.3-1-.5-8.5-1.8-1.9-.4-1.1-2.3-2.1-.8,3.8-1.8,1.3-1.4.9-.8,3.5-.6,2.7-2.3,2-.9.4-1,3.5-2.9.8-1.3,2.2-1.4,3.7-.5.9.4-4.7,3.9-1.9,3.9.3,2,1.7-2h2c0,0,1.4,0,1.4,0l2.7,1.2,2.8,3.9h2.7c0,.1,1-.5,1-.5l1.5,1.2,3.6-1.6,3.3-2.5,2.7-.5,3.8-.3,2.3-1.3,2.2.6v2.5s2.7.9,2.7.9l3.6-1.2,3-.4-.2,1.3.6,3.3.7,1.2,1.9,1.1,1.8-1.7h1.2s1,2.2,1,2.2l-2.7.3-3.4-.2-2.5,1-3-1.4-.5,3.2-2.8-2.1-3.4-.9-1.9.2-1.2,2-2,.2-.6.6-2.7-.2-1.2.9-1.1,2.3-3.3-1.1-.4,2-2.3.3-1.7,2.6-.5,1.8-2.5,4.6.2.4ZM485.9,230.9l-3.2.6-1.2.2-5,.8h-.4c0,0-4.2.7-4.2.7l-.3-.9-3.9.5h-1c0,0-3.9.5-3.9.5l-1.4.2-2.9.3-1.7.2-3.2.4-3.2.3,2-2.1,1.1-3.4,1.1-1.9.7-2.7.2-5-1.2-5-2.5-4.9-1-2,.8-3-1.2-3.3,1.1-1.8,1-2.5v-2.5c0,0-.2-2.7-.2-2.7l1.5-1.2v-1.8c-.1,0,1.2-1.1,1.2-1.1h1.3c0,.1.4-1.4.4-1.4l1.6-.5v4.3c-.1,0,1.7-1.4,1.7-1.4l.4-1.1-.4-4v-.9c0,0,2.7-1.7,2.7-1.7l-.6-2.8,1.8-2.8,1.7-.8,2.9,1.6h2.6s1.1,1.6,1.1,1.6h2c0,0,3.3,1.5,3.3,1.5l1-.2,1.4,2,.8,1-1.2,1.6,1.7,2.3.8,2v3c0,0,.1,2.4.1,2.4l-1.7,1.2-.4,1.6v1.6s-2.3,1.3-2.3,1.3l-.7,1.2.4,3.4,2.3.7,2.1-2.1,1.7-3.8,3.4-1.8,1.9.9,1.4,2.1.6,2,2.1,7.3,1.3,2.6-.4,5.4-1.9.4v-1.2c-.1,0-1,.6-1,.6l-.3,3-.7,1.7-1.6,1.7-.2,3.1-1.3,1.7-1,2.9ZM418.3,149.1l.7-.9,5.9-3.9-1,2.4-2.1,1-1.4,1.6-1.9-.2Z"/>
      <path class="st28" d="M101.6,204l-3,11.3-2.4,9.6-2.9,10.9-1,3.9-.5,1.8-.5,2.1-.2.8v.6c-.1,0,.4,2.2.4,2.2l2.6,3.9,2.1,3.2,1.4,2.1,6.1,9.2,5.1,7.6,5.7,8.7,5.5,8.2,6.2,9.3,1.8,2.7,9.2,13.8-.4,1.9,1.4,2.5.8,4,1.9,2.6-1.7,1.6-2.4.9-1.6,2-.2,3.3-2.2,3.5-1.3.2.2,1.9-.8,2.4,2,1.4v2.7c0,0-1,1.1-1,1.1h-2.2c0,.1-16.6-1.8-16.6-1.8l-12.2-1.4-1-2.2.6-2.9v-3.7c-.1,0-1.5-3.5-1.5-3.5l-.9-1-1.7-2.7-3.2-3.7h-1.8c0,.1-1.6-.8-1.6-.8l.6-1.3-.8-3-4.8-1.5-2.8-2.2-.2-1.6-1.9-2.3-.8-.7-3.6-.8-2.8-1.7-3.8-.6-1.5-2.3.9-1.4.5-4.1.7-2.1-2.5-2.5.9-2.1-1.3-1.2-1.1-3-1.2-.9-.2-1.8-2.6-6.7-1.5-2.2v-2.5c.1,0,.9-2,.9-2h1.2c0,0,.9-2.7.9-2.7l-.2-1.3-2.6-1.1-1.4-2.7-.8-1.6.7-2.3-.6-2.6.9-2.6,1.2.3v1.7c-.1,0,2.1,2.5,2.1,2.5l.7.3-.4-3.2-1.4-2.1h0c0,0,.7-1.6.7-1.6l-.9-.8,2.1-1.3-1.1-1.5h-1.1c0,.1-1,4-1,4l-2.2-1.5-2-2.7.4-3.9-.8-2.5-1.7-2.3-1.3-3.4-1.5-2.7.9-1.8v-4.7c0,0,1.3-2.3,1.3-2.3l.3-4.2-1.1-2.9-2.4-4.7.3-2.6,1.6-2.2,2.9-3.1.8-2.4,2.7-5.4.2-3.6-.8-1.4,1.3-2.8,4,1.3,3.1.8,2.9.8,9.6,2.7,8.6,2.6,5.8,1.6,9,2.4ZM69.8,315.3l2,.2-1,1.7-1-1.8Z"/>
      <path class="st36" d="M516.2,222.8l.3,1.8.8,5v.2s.9,5.1.9,5.1h0c0,.1.5,3.3.5,3.3v.7c.1,0,.6,3,.6,3l-1.5,1,.8,2.6.5,1.1-.5,2-.2.4v1.8c0,0-.6,2.8-.6,2.8l.2,1.9-.9,1.8-.9,1.1-.7,1.3-2.5,2.1-1.1-.8-2.5,3.2-.2.5.2,1.2v2.5s-1.3.9-1.3.9l-.5-1.5-1.7.7-1,2.5.4,2.9-.7.2v2c0,0-2,.8-2,.8h-.9s-1-1.1-1-1.1l-1.8-.7-1.2-2.5-1.6,1-.9,1.3-1.4.3-2.9-.9-1.3,1.1h-.6s-2.5-1.5-2.5-1.5h-1.6c0,.1-2-.4-2-.4v-.7c-.1,0-1.3-2-1.3-2l-2.2-.8-1.3.5-2.2-.2-.3-2.9-.3-3.1v-.7c0,0-.4-2.3-.4-2.3l-.3-2.7v-1.3c-.1,0-.6-4.4-.6-4.4v-.6c-.1,0-.4-3.2-.4-3.2l-.3-2.3-.3-2.8v-.9c-.1,0-.6-3.8-.6-3.8v-.3s-.3-2.2-.3-2.2l-.2-1.5-.3-2.4,4.2-.6h.4c0,0,5-.9,5-.9l1.2-.2,3.2-.6,3.3,1.2,2.6,1.2h2.6c0,0,2.5,1.2,2.5,1.2l1.3-.9,3.8-1.7h2.4c0,0,2.4-2.5,2.4-2.5l1.8-2.2,2.8-1.8,4.8-2.6Z"/>
      <path class="st42" d="M578.7,219.7l-.8-.8h-1.5c0,.1-2.4-1.7-2.4-1.7l-.3-2.2-1.3-1.2-3.1-1.5-.9.2-6.4,1.4h-.4c0,0-4.3,1-4.3,1l-3.8.8h-.4c0,0-6.7,1.5-6.7,1.5l-1.4.3-4.8.9-1,.2-6.4,1.2-1.4.3-5.7,1-1.6.3-.7-3.9,5.7-5.4.6-1.8,1.7-1.7-2.4-3.7-1-2.7,4.2-2.2,1.7-.5,4.8-.8h2.5c0,0,2.1.9,2.1.9l1.9-.9,4.4-.7,2.1-1.5.9-1.3,1.8-1.9,1.9-1.2-.3-1.5-.7-1.7.5-2-2.1-.9-.4-2.4,4-3.8.6-1.8,4.1-6.1,2.3-2.2,2.5-.7,6.9-1.6,6.7-1.9,1.4,6.3.3.2,1.2,3.9-.5,3.4,1.4,3.1.4.8,1.9,2.9.7,3,1.1,5.3.8,2.7v3.5c0,0-.3,6.4-.3,6.4l.3.5h.1s1,5.5,1,5.5l.3,2,.4,2.3,1.2,2-2.2,2.2,1.1,1.4-.8,1.8v1.1s.2,0,.2,0l.4-1.1,2.1-1.3,2.8-.4.8-1.1,5.2-1.6,2.7-2.5,2.9,1-2.7,2.6-6.2,4.5-3.7,1.7-3.4,1.1-1.2.7-1.2.2-.7-1.5h-.3c0,0,.3-1.7.3-1.7l.3-1.3v-.5c0,0,0-1.2,0-1.2l-3.8-1.1h-.3c0,0-1.6-.6-1.6-.6l-4-1.4ZM587.5,228v1.7c0,0-1.5,1-1.5,1l.3-1.4.3-.8.9-.5Z"/>
      <path class="st3" d="M476,270.5l-.5,1.1.3,1.8.9.5v1c0,0-2.4.7-2.4.7l-1.8,1.3-1.5-.5-1.3.5.5,1.7v.9s-2,2.3-2,2.3l-1.6,1.5-1,1.7v2.2s-.2.3-.2.3l-.6.2-3.1-.5-.9-1.7-1.3,1-.2,1.1-.3,1.9-1.2,1.2-2-2.1-1.7,1.2-.9,1.9-2.3-.9-.4-.3-1.7-.5-2.8.9-2.6.2-1,1.6-.8-1.3.4-2.3.9-1.9-.6-.8v-.4s1.4-.4,1.4-.4l1-2.1.8-2.3,1.3-2-.4-2.2v-.8s-1.6-3.5-1.6-3.5l.3-1.5.7-1.3-.2-1.9-.2-1.9-.4-4-.3-3.8-.4-4.7v-.2s-.3-3.5-.3-3.5l-.4-4-.2-2.2-.2-1.9-.2-2.5-.3-3.4,1.1.8h2.2c0,0,2.9-1.4,2.9-1.4l1-.9,3.2-.3,3.2-.4,1.7-.2,2.9-.3,1.4-.2,3.9-.5h1c0,0,3.9-.6,3.9-.6l.3.9.3,2.4.2,1.5.3,2.2v.3s.5,3.8.5,3.8v.9c.1,0,.4,2.8.4,2.8l.3,2.3.3,3.2v.6c.1,0,.5,4.4.5,4.4v1.3c.1,0,.4,2.7.4,2.7l.3,2.3v.7c0,0,.4,3.1.4,3.1l.3,2.9Z"/>
      <path class="st6" d="M402.6,258.1l.6-3.4,1.7-.5.7-.9v-1.7c0,0,1.4-1.7,1.4-1.7v-2.1s0,0,0,0l-1.9-2.3.4-1.4.2-1.2,2.8-.8,3.4-1.2,1.2-1,.2-2,.7-.9.8-2.2v-1.5c0,0-.2-1.2-.2-1.2l-1.7-1-1.8-2.6-1.9-1.8h2.3c0-.1,5.2-.4,5.2-.4h.9c0,0,4.6-.3,4.6-.3h.4s4.4-.2,4.4-.2h1.7c0,0,.7-.2.7-.2l4.2-.3h1.1c0-.1,4.2-.4,4.2-.4v2.8c-.1,0,.9,2.1.9,2.1l.9,1,1.2,3.5,1,1.6.3,3.4.2,2.5.2,1.9.2,2.2.4,4,.3,3.5v.2s.4,4.7.4,4.7l.3,3.8.4,4,.2,1.9.2,1.9-.7,1.3-.3,1.5,1.6,3.5v.8s.3,2.2.3,2.2l-1.3,2-.8,2.3-1,2.1-1.4.4v.4s.6.8.6.8l-.9,1.9-.4,2.3.8,1.3-1.3,2.1.4,1.3.9.9-3.2,1.7-.7-.2-1,2.1,1.2,1.8-.6,1.3h-.8c0-.1-4.3-1.9-4.3-1.9h0s-.8,0-.8,0l-1.7,2.4.5,1.2-2.1-.2-.7-.4-1.5-3v-1.2s.6-.9.6-.9l-1.3-2.4h0c0,0,0-1.7,0-1.7l-1.9-1.6-2-1.3-1,.5-.9-1.3-2.3-1.6-.6-.5-1.2-1.2v-2.5s.8-1.9.8-1.9v-.2c0,0,.8-1.9.8-1.9v-1.6s.5-.5.5-.5l-1.8-1.6-1.9-.6-1,1.4-1.4-.8-.8-4.1-2.5-2.4-2.8-2.7-1.4-1.2-.7-1-.9-2.7-.7-1.3-.2-2.3v-.7s.8-1.9.8-1.9Z"/>
      <path class="st33" d="M502.8,327l-4.3.7h-.8c0,.1-4.4.7-4.4.7h-.8c0,.1-1.5.3-1.5.3l-2.2.3v-3.2s2.8-1.6,2.8-1.6l.5-2.5h.1c0,0,1.9-1.7,1.9-1.7l1.2-.3,1.9-.2,2.5-2.3v-.3s1.6-1.1,1.6-1.1l1.6-.5.4-2.3,3.2-1.8,1.2.7.8-1.5,2-1.5,1.8.5,1.3-2.5v-.3c.1,0,2-1.8,2-1.8l.2-2.9,3.7-.4,5.1-.6h.7c0,0,2.6-.5,2.6-.5l2-.2,4.3-.6h.3c0,0,3.5-.7,3.5-.7l2.3-.4h.5c0,0,1.4-.4,1.4-.4l1.4-.2.9-.2,3.9-.7h.7c0-.1,3.1-.7,3.1-.7l1.5-.3,3.1-.6,1.6-.3,1.5-.3,5.2-1,1.5-.3,2.8-.5h0c0,0,4.2-.9,4.2-.9h.5c0-.1,2-.6,2-.6l2.2-.5,2.8-.6,2,4.3,2,2.7-.7.4-1.5-3h-1.9s-.5,1.1-.5,1.1l-2.2-1.1-.7,1.7-1.2,1.9-1.7,1.4-2.1-1.7v-1.9s-.2.5-.2.5v1.5c0,0,1.2,2.7,1.2,2.7l3.7-.8,3.3-1.4,1.2,4.6h.3c0-.1-.3-3.5-.3-3.5l.6-1.3,1.4.3,1,1.6.5,2.6-1.4.9-2.3,4.3-4,.2-1.6-1.7,1.2-1-1.7,1,.8,2.4,1.8.8-1,3-2,1.9-2-.8,2.6,1.3.8-.8,1.9-1.1,2.8.4-1.6,2.2-.5,2.1-4.4.9-2.3,1.1-4.1,3.7-1.9,2.5-.9,2.1-.6,3.6-.8.7-4.3.6-1.7,1-1.5-1.1-5.8-4.1-5.2-3.8h-.2c0-.1-3.1-2.1-3.1-2.1l-2.7.4-4.6.6-2.8.4-2.7.4-.9-2.5-.9-.9-1.7-.8-3.3.3h-.5s-4.6.5-4.6.5h-1.3c0,.1-1.1.3-1.1.3l-2.8.3-1.5.3-2.5,1-2.1,1.4-1.5.4-1.2.6-1.1.5Z"/>
      <path class="st21" d="M613.6,185.6l-1.4-.6-.4-1.6-1.9-1-.7-2.8-1.2-3.4-2.1-6.8-4.5-14,1.2-.8,1.4.5-.4-1.8,1.6-4.4,2-3.9-1.2-2.2v-4s1.1-1.6,1.1-1.6l-.3-2.2-.2-1.8,4.3-12.6,2,.2.6,2.2,1.6.5,2.6-2.3,1.4-.3,1.8-1.5,3.1,1.3,2.1,1.3,4.8,15.4.9,3.7,4.1.2-.4,1.4,1.3,1.3v1.3c-.1,0,1.1,1.6,1.1,1.6l1.1-.8,1.8.6,2.6,3.7-1.3,2.9-1.6.7-1.6,2-1.9.9-1.3,1.9-1.7,1.1-1.1,2.6-1.9-1.3-.6,3.7h-.4s-2.4-2.1-2.4-2.1l-.6-3-1.1,4.4v2.2c-.1,0,.8,1.1.8,1.1l-1.3,1.9-1.7-.2-2.6,2.8-1.7,1.2-2.6,2.9-1.1,1.8v2.6c0,0-1.1.7-1.1.7v3c0,0-.6,1.3-.6,1.3Z"/>
      <path class="st46" d="M341.3,135.4l1.2,4.5-.6,2v4.9c.1,0,0,.3,0,.3l.9,3.2,1.5,3.9.4,2.5v3.7c.1,0,.2,1.3.2,1.3l.3,7.4h0s.5,2.2.5,2.2l1.3,2.2.2,4.4v1.2c.1,0-6.5,0-6.5,0h-7.5c0-.1-.3-.1-.3-.1l-7.1-.2h-2.8c0-.1-7.1-.4-7.1-.4h-1.6c0,0-6.2-.4-6.2-.4h-.1s-14.8-.9-14.8-.9h0s-9.4-.6-9.4-.6h-.5s-10.4-.9-10.4-.9l.4-4.8.3-3.7v-1.4c.1,0,1-9.8,1-9.8v-.9c0,0,.8-8.5.8-8.5l.4-5.6.3-3.5.4-5.2,10.5.8,8.7.6,5,.3,12.5.6,6.2.3,5,.2,10,.2h6.9Z"/>
      <path class="st11" d="M284.4,306.1l-10.8-.8h-1c0,0-10.4-.8-10.4-.8l-13-1.2h-.7c0,0-5.6-.6-5.6-.6l-3.3-.3-5.3-.5-10.7-1.3h-.7c0,0-10.1-1.4-10.1-1.4l-7.5-1,1-7,.8-5.7.5-3.9.5-5,1.8-12.4.3-1.9.3-2.3,1.1-8.1.9-6.3.6-4.9,12.1,1.6,6.4.8,4.9.6,5.7.7,1.4.2,9.7,1,3.6.3,9.5.8,5.1.4,2.1.2,7.8.6h.3s6.1.4,6.1.4l-.2,3.7v.8s-.3,3.7-.3,3.7v1.3c0,0-.4,5-.4,5l-.4,6.2h0c0,0-.4,6.4-.4,6.4v1.2c0,0-.4,5.1-.4,5.1v1.2c0,0-.4,5-.4,5h0c0,0-.4,7.6-.4,7.6v1.4c0,0-.3,3.7-.3,3.7l-.4,5.7Z"/>
      <path class="st46" d="M269,217.8l-.4,5.6-.7,8.8-.4,4.4-.2,1.9-.2,2.5-.5,5.6-9.5-.8-3.6-.3-9.7-1-1.4-.2-5.7-.7-4.9-.6-6.4-.8-12.1-1.6-10.1-1.4h-.5c0,0-10.6-1.7-10.6-1.7l.6-3.6.8-4.7,1-6,1.2-7.3,1.2-7.2.7-4.2.4-2.6,1.1-6.9,1.1-7,.4-2.7.9-4.7,3.4.7,9.1,1.2,11.8,1.7,3.7.5,3.4.4,16.6,2,2.4.3,9.6.9h.4s9.9,1,9.9,1l-.5,6.1-.5,5.6v.6s-.4,4.1-.4,4.1l-.4,5.1v.4s-.6,6.8-.6,6.8Z"/>
      <path class="st19" d="M272.7,175.6v.9c0,0-.9,9.6-.9,9.6l-.4,3.1-9.9-.9h-.4s-9.6-.9-9.6-.9l-2.4-.3-16.6-2-3.4-.4-3.7-.5-11.8-1.7-9.1-1.2-3.4-.7-.9,4.7-.4,2.7-1.6-1.8-1.1-2.7-1.1.4-1.7,2.1-2.2.2-.3-.9-2.5.2-1.7-1-2.1,1-3.1-.6-.6,1.5-1.7-1.4-.5-4.8-3-1.9.5-2.7-1-1.2-1.1-3.1-.5-2.9.5-1.1-1.1-1.4-4.5,2.5-1.9-1.9,1-2.1-.4-.8,2.1-1.2-.6-2.5.9-2.7,2.3-4.9v-.7s-2.6,0-2.6,0l-.5-1.6-2.1-1.9v-1.4c0,0-2.2-3.6-2.2-3.6l-.5-1.6-1.8-1.1-1.5-2.1,1-.6-.3-3.2-.8-1-1.4-3.6.7-3.3.9-4,1.5-6.9,12.3,2.5,6.2,1.2,9.9,1.9,7.7,1.4,8.6,1.5,5,.8,11.9,1.7,11.8,1.6,10,1.2,10.1,1.1,10,1,9.6.9-.4,5.2-.3,3.5-.4,5.6-.7,8.5v.9c0,0-.9,9.8-.9,9.8v1.4c-.1,0-.4,3.7-.4,3.7l-.4,4.8Z"/>
      <path class="st12" d="M163.1,217.8l-2.5-.5-7.9-1.6-8.6-1.8-11.8-2.6h0s3.3-14.5,3.3-14.5l2.1-9.2,1.1-2.7,1.7-3.7-1.7-2.2-1.1-.5.5-2.5,1-.8,1.6-2.6,1.7-1,1.9-3,1.5-2.5,3.3-4.4-.8-2.6-1.7-1.5-.8-2.3.4-2.5-.7-2.7.4-1.1.4-1.6,1.8-8.2.4-1.8.3-1.5,1.9-8.5.2-1,2.6-11.1.5-2.1,9.2,2-1.5,6.9-.9,4-.7,3.3,1.4,3.6.8,1,.3,3.2-1,.6,1.5,2.1,1.8,1.1.5,1.6,2.1,3.6v1.4c0,0,2.2,1.9,2.2,1.9l.5,1.6h2.6c0,0,0,.8,0,.8l-2.3,4.9-.9,2.7.6,2.5-2.1,1.2.4.8-1,2.1,1.9,1.9,4.5-2.5,1.1,1.4-.5,1.1.5,2.9,1.1,3.1,1,1.2-.5,2.7,3,1.9.5,4.8,1.7,1.4.6-1.5,3.1.6,2.1-1,1.7,1,2.5-.2.3.9,2.2-.2,1.7-2.1,1.1-.4,1.1,2.7,1.6,1.8-1.1,7-1.1,6.9-.4,2.6-.7,4.2-1.2,7.2-1.2,7.3-4.8-.8-6.3-1h-.6c0,0-8.7-1.7-8.7-1.7l-10.8-2Z"/>
      <path class="st4" d="M532.7,253.1l.9-.2,4.9-.9,1.3-.2,4.6-.9h.4c0,0,2.6-.6,2.6-.6l6.8-1.3h.1s2.6-.5,2.6-.5l2.3-.5,2.3-.5,2.3-.5,3.5-.7h0s1.1-.3,1.1-.3l3.7-.8,1.3,4.8.3,1.1.2.7.4,1.5,1.2,4.4.8,2.7.3,1,.4,1.4,3.9-.7,3.2-.7-.8,6.4-4.1,1.4-.4.7-2.4-.4-.6-3.2-.3-1.6h-1.3c0,0-1.7,2.2-1.7,2.2l-2.5-2.9.2-2h2.8c0,0-3.9-2.2-3.9-2.2l1.2-1.4-.3-3.5-1.5-.5.6-2.9,1.6-1-.2-2.7-1.1.5v1.6s-1.6,2.1-1.6,2.1l-.9-.9.5,2-1.9.5v.5c0,0,1.4.9,1.4.9l.7,1.6-1,2.4.3,2.1.7,2.6,1.8,1.7-.7,1.1,2.2,2.3-.2,1.2-3-1.7h-2.3c0,.1-.9-1.4-.9-1.4l-1.3.4-.8-1.3-1.8,1.6-1.1-1.6,1.1-2.5.3-1.1.3-1.3h0c0,0,1.1-1.8,1.1-1.8l-1.3-.8-1.2.7-2.6-1.3h-1.5s-.4-2-.4-2l-2.7-1h-.4c0,.1-1.6-2.1-1.6-2.1l-.5-1.6-2,.2-1.8-.7-1.6,1.1-1.1,2h-2.1c0,0-1.9-.3-1.9-.3l-1.1,2h-1.2c0,0-1.9,2.6-1.9,2.6l-2,2.1-1.2-7.4Z"/>
      <path class="st19" d="M519.3,241.9l.4,2.3.2,1.1.6,3.5.3,2v.8c.1,0,.7,3.4.7,3.4l1.1-.2,5.4-.9,1.6-.3,3.1-.5,1.2,7.4,2-2.1,1.9-2.5h1.2c0,0,1.1-2.1,1.1-2.1l1.9.4h2.1c0,0,1.1-2.1,1.1-2.1l1.6-1.1,1.8.7,2-.2.5,1.6,1.6,2.3-.7,2.9-2.6-1.5-2.5-1.4-1.5-.8.2,4.4-.9,1.3-.3.5-.4,1.4-1.8,1.5-.5,1.9-1.6-1-.4,1.4-1.1,4.4-.8,1.1-1.9-.3-2.2-1.6v2.4s-.8,2.6-.8,2.6l-.9,1.2-.4,2-.8,1.8-1,1.3-1.1,2.9,1,.8-.6,1.8-1.7,1.6-1-.6-1.5,1.4-1.8-.2.3,1.1-1.3,1-2.6,1.2-1.8-1.2-1.9,2.3-2.1-.2-2.4-1.4-.3-2.2-.5-.3-2.9-.9-1.6-1.5-1.2-1.5-1-1.2-1.9-2.5v-1.6c.1,0,0-2.5,0-2.5h.9s2-.8,2-.8v-2c0,0,.8-.2.8-.2l-.4-2.9,1-2.5,1.7-.7.5,1.5,1.3-.9v-2.5s-.2-1.2-.2-1.2l.2-.5,2.5-3.2,1.1.8,2.5-2.1.7-1.3.9-1.1.9-1.8-.2-1.9.5-2.8v-1.8c0,0,.2-.4.2-.4l.5-2-.5-1.1-.8-2.6,1.5-1Z"/>
      <path class="st41" d="M535.1,365.5l-3-.7-.6-1.5v-1.1c.1,0-2.3-3.3-2.3-3.3l-1.4-.4-.6-2.1-.3-1.3-1.9-2.8-1-.6-1.9-1.2-1.2-.5-1.3-1.5.2-1.2-1.4-1.1h-.2c0-.1-1.1-.8-1.1-.8l-1.4-1.1-1.8-1.9-2.8-1.4-.5-.8-2.1-2.5-.5-1.1-1.6-2.5-1.3.2h-.7c0-.1-.7-.7-.7-.7l-3.1-1.8-.2-.4,2.3-4.5,1.1-.5,1.2-.6,1.5-.4,2.1-1.4,2.5-1,1.5-.3,2.8-.3h1.1c0-.1,1.3-.3,1.3-.3l4.6-.5h.5s3.3-.4,3.3-.4l1.7.8.9.9.9,2.5,2.7-.4,2.8-.4,4.6-.6,2.7-.4,3.1,2h.2c0,.1,5.2,4,5.2,4l5.8,4.1,1.5,1.1-2.9,2.2-1.8,2.8-1.2,3.1v3c0,0-1,1.1-1,1.1l-.6,1.6-1.4.4-.9,1.5-2.8,2.7-1.4,2.4-3.1,1.8-2.3.9.5,2.3-1.7,1.1-2.7,3.1v.7Z"/>
      <path class="st14" d="M145.9,155.4l-5.5-1.3-1.2-.3-3.6-.9h-.2s-9.6-2.3-9.6-2.3l-1.6.6-3-.5h-4.5c0,0-1.4,0-1.4,0l-2.4.7-2.9-.4-1.3-.9-2.9.7-4.8-2.2-.7-.6-3.4-.5-.7.5-3.6.5-3.8-2.1-.4-1.8.2-1.8-.2-3.6-1.6-2h-1c0,0-1.5-.1-1.5-.1l-1.3-2.1-1.6-.9h-1.9c0,.1-1.1-1.5-1.1-1.5l2.5-2.4-.8-4.1,1.6-1.4v-1.6c0,0-1.1-1.3-1.1-1.3l.3-2.8-.5-1.2.4-2.5v-3.1c.1,0-.9-2.4-.9-2.4l-.2-1.3.7-3.1,1.3-2.6,4.7,4.6,3.2,1.1,4,1.9,1-.5,1.8,2,1.2-.7.8,4.2-2,1.8-2.2.8-.7,1.1,3-1.3,1.2-1.6,1.8-1-.3,2.3-1,3.2-.9,1.4-.5,1.6-2.1,1.7-.7-2.1.8-1.2-.9,1-.4,1.4,1.2,1.3,2.4-2.1h1.2c0-.1,1.1-.8,1.1-.8v-4c0,0,.8-1.5.8-1.5l2.6-3-.9-1.7v-1.5c.1,0,.1-.3.1-.3l.4-.6-.9-1.2v-1.5c.1,0,1.7-1.5,1.7-1.5l-.4-.8v-1.9c0,0-.9-.3-.9-.3l-.8-1.9.7-1.5,9.2,2.7,8.3,2.2,7.8,2.1,10.7,2.7,5.9,1.4,7.1,1.7,3.7.9-.5,2.1-2.6,11.1-.2,1-1.9,8.5-.3,1.5-.4,1.8-1.8,8.2-.4,1.6-.4,1.1.7,2.7-.4,2.5ZM95.6,104.1h1.5c0,0,1.6-.8,1.6-.8l1.4,1.2-.6,1.3-1.9,1-1.6-1-.3-1.6Z"/>
      <path class="st24" d="M576,243.4l1.9-1.4.7-.5.6-1.6.7-1,2.4-2-3-2.2-1.4-.8-.5-1.7-1.5-.4v-.2c-.1,0-.4-2.4-.4-2.4l1-1.6-1-1.2,1.2-2.1h-.2c0,0,1-2.9,1-2.9l1.2-1.5,4,1.4,1.6.5h.3c0,0,3.8,1.2,3.8,1.2v1.2s0,.5,0,.5l-.3,1.3-.3,1.7v.5c-.1,0-1.1.5-1.1.5l-.3.8-.3,1.4.5.6h2.5s.6,1.6.6,1.6v2.9c0,0,.5,4.9.5,4.9l-1.4,4.2-.6,2.2-1.2,1.2-.9,1.5-.9,3.5-1.5-1.1-.4-1.3-2.8.3-3.1-2-1.6-.8-.7-2v-.4c-.1,0,.2-.9.2-.9l.7-1.8h0Z"/>
      <path class="st37" d="M588.8,196.7l-.8-2.7-1.1-5.3-.7-3-1.9-2.9-.4-.8-1.4-3.1.5-3.4-1.2-3.9-.3-.2-1.4-6.3,1.5-.4,6.3-1.5,6.4-1.6,3.9-1.1.4,1.4-.7,2.7,1.2,1.4v2.1s-1.3,1.5-1.3,1.5l-.5,1-2,1.7.7,1.5-.3,5.8-.6,2.7-.4.4.6,5v1.1c0,0,.6,2.1.6,2.1l-.7,1.1.4,2,1.1.9-4.8,1-1,.2-2.5.5Z"/>
      <path class="st23" d="M376.4,365.6h2.7c0,0,.1,0,.1,0h3.4c0,0,.4,0,.4,0h3c0,0,3-.1,3-.1h3.2c0,0,7.9-.3,7.9-.3l7.2-.3h.3s2.1-.1,2.1-.1h1.2s.4,5.2.4,5.2l1.4.8-.3.2-.5,1.2,1.4,1.6,1.3.5-1.1,1.7h-1.6c0,.1.9,1.3.9,1.3h.3s0,.1,0,.1l-2.4,3.7-.8,1.8-.8.2v1.3c0,0-1.5,1.7-1.5,1.7v3.7c.1,0-.7,1.2-.7,1.2l-.4,2.8,5.6-.3h1.4c0,0,2.9-.2,2.9-.2l3.2-.2h.2s2.4-.2,2.4-.2h1.1c0,0,5.2-.4,5.2-.4h1.3c0,0-1.2,4.8-1.2,4.8l2.1,2.9,1.2,3.2,1.1.6-1.2.5-.7,1.2-2.1,1.1,2.2,1.9,1.1-.3v-1.6c0,0,1.2-.8,1.2-.8l2.3,1.5-1.2,2.7-1.2,1.1-1.7,2,2,1,.3,1,2.4-.2,2.6,1.7.7,2.3-2.8.9-2.5-2.3-2-.9-3.3.2-2.2,2-1.6,1.2-1.2-2.6-.9-.2-1.9-.2-2.3,2.5-1.7.7-1.4-1.2-4-.8.4-2.7-2.8-.3-2.2-3.7h-2.9c0,0-1.5-1.2-1.5-1.2l-2.7,1.7,1.2,1.5-2.6,1.3-3.7-.6-4.2-1.6-2.9-.8h-3.7c0,.1-3.3.7-3.3.7l-1.2.7-1.2-1.5.9-1,1.6-2.7v-2.8c.1,0-.4-2.3-.4-2.3v-2.5c.1,0,1.4-1.8,1.4-1.8l.7-2.5.5-2.2-.5-2.3h-.6c0,.1-.8-2.5-.8-2.5l-2.1-3.2.3-1.4-1-2.3-1.6-1.9-.4-3.1v-2.8c0,0-.1-4.4-.1-4.4v-2.7c0,0,0-2,0-2ZM402.6,414.1l2.1-.6,1.7,1-1.6,1.2-2.3-1.5Z"/>
      <path class="st32" d="M613.4,205.9l-1.5-.2h-.3c0,0,.1,1.4.1,1.4l.6,2.6-.3,1.6-3.7,1.7.3-1.5-.6-2.6-.2-.6-.3-1.1-1.1-4,3.1-.9h1.3c0,.1,1.4,2.9,1.4,2.9l1.2.7ZM613.8,206.3l1.4,2.3-2.3.6.9-2.9Z"/>
      <path class="st27" d="M601.4,155.4l4.5,14,2.1,6.8,1.2,3.4.7,2.8,1.9,1,.4,1.6,1.4.6-.4,3h-1.2c0,.1-2.6,3-2.6,3h0c0,0-.3.8-.3.8l-6.2,1.4h-.3c0,0-3.6.9-3.6.9l-1.8.4-1.1-.9-.4-2,.7-1.1-.6-2.1v-1.1c0,0-.7-5-.7-5l.4-.4.6-2.7.3-5.8-.7-1.5,2-1.7.5-1,1.3-1.5v-2.1s-1.2-1.4-1.2-1.4l.7-2.7-.4-1.4.2-2.8.8-1.8,2-.6Z"/>
      <path class="st16" d="M590.8,222.4l-1.1-1.4,2.2-2.2-1.2-2-.4-2.3-.3-2-1-5.5,4.5-1h.5c0,0,5.1-1.3,5.1-1.3l3.9-.9h.3c0,0,3.2-.6,3.2-.6l1.1,4,.3,1.1.2.6.6,2.6-.3,1.5h-.9s-3.9,1.8-3.9,1.8l-1.9.8-4.4,1.2-1.2,1.5-5.1,4Z"/>
      <path class="st5" d="M588.9,207h-.1s-.3-.5-.3-.5l.2-6.4v-3.5c0,0,2.5-.5,2.5-.5l1-.2,4.8-1,1.8-.4,3.6-.8h.3c0,0,6.2-1.5,6.2-1.5l.3-.7h0c0,0,2.6-2.9,2.6-2.9h1.2c0-.1,1.1,2.1,1.1,2.1l1.7,1.4-2.1,1.1-.5,1.7.2,1.9.5.3h1.4c0-.1.5,0,.5,0l2.1,1.9.3,1.9h1.2c0,.1.6,1.7.6,1.7l3.2.6,2.2-2,1.2,1.4-3,1.8-3.9,2.8h-.3c0,0-.2-2.9-.2-2.9l-1.7,1.8-.6,1.5-1.8,1.1-1.4-2.3-.4-.4-1.2-.7-1.4-2.7h-1.3c0-.1-3.1.8-3.1.8l-3.2.5h-.3c0,0-3.9,1-3.9,1l-5.1,1.2h-.5c0,0-4.5,1-4.5,1ZM618.7,209.8l1.9-2.4,2.1,1.5-4,1Z"/>
      <path id="DC" class="st29" d="M561.6,261.4l-.2-.7-1.1-1.2,1.2-.7,1.3.8-1.1,1.7Z"/>
      <path class="st20" d="M572.3,245.3l1.7-2.1h2c0,.1,0,.2,0,.2l-.7,1.8-.7.7.6,2.7,1.1,1.2,1.8,2,.4,2.1,1.3,1.4,1.7,1.7,1.3.2,1.4,4.5-3.2.7-3.9.7-.4-1.4-.3-1-.8-2.7-1.2-4.4-.4-1.5-.2-.7-.3-1.1-1.3-4.8Z"/>
      <path class="st2" d="M446.8,400.2l-.6-5.2-.5-3.7-.2-1.7-.6-4.6-.5-3.7-.3-2.8v-4.8c.1,0,.2-1.2.2-1.2v-3.9c0,0,.2-5.1.2-5.1v-.9s0-4.3,0-4.3v-3.6c0,0,0-3,0-3v-4.6c.1,0,.1-.4.1-.4v-3.4c0,0,0-2.1,0-2.1v-1.7c0,0,.2-4.5.2-4.5l-1.3-1.4,2.5-.4,4.4-.3,4.4-.3h.2s4.3-.3,4.3-.3h.6c0,0,5.4-.6,5.4-.6h.1s5.2-.5,5.2-.5l3-.3.5,1.8.9,3.3v.5c.1,0,.4.9.4.9l1,3.4.8,2.9.5,1.6.2.9,1,3.5.7,2.4.2.8,1.1,4.2v.3c0,0,1.1,3.3,1.1,3.3l.9,1.6.8,2,1.1,1.3.5,1.9,1,2-1.5,1.5.2,1.1v1s-.5,3.1-.5,3.1v.2s1.4,3.4,1.4,3.4l-.2,3v1.8s1.2,1.5,1.2,1.5l.4,1.1-5.9.7h-.1s-6.5.8-6.5.8l-1.9.2-2.4.2-3.7.4h-1.2c0,0-4.6.5-4.6.5l-5.3.5-.3,1.9,1.4,1.7,1.6.8v3.9c.1,0-.8,1.9-.8,1.9M473.9,330.8h1.5c0-.1,1.3-.3,1.3-.3l1.1-.2,3.3-.4h0s2-.2,2-.2h.4s1.8-.3,1.8-.3l3.5-.4,2.2-.3,1.5-.2h.8c0-.1,4.4-.7,4.4-.7h.8c0-.1,4.3-.8,4.3-.8l-2.3,4.5.2.4,3.1,1.8.7.5h.7c0,.1,1.3,0,1.3,0l1.6,2.5.5,1.1,2.1,2.5.5.8,2.8,1.4,1.8,1.9,1.4,1.1,1.1.6h.2c0,.1,1.4,1.3,1.4,1.3l-.2,1.2,1.3,1.5,1.2.5,1.9,1.2,1,.6,1.9,2.8.3,1.3.6,2.1,1.4.4,2.4,3.3v1.1c-.1,0,.5,1.5.5,1.5l3,.7M531.4,385.4h-3.1s-2.7-.7-2.7-.7l-1.5,1.3.6,2.1v3.4c0,0-1.4.3-1.4.3l-1-2.9-2.5.2h-.5s-1.5.1-1.5.1h-1.3c0,.1-5.5.5-5.5.5h-1.7c0,.1-1.1.2-1.1.2l-3.1.2h-1.6c0,.1-3.3.3-3.3.3h-.9c0,0-2.4.2-2.4.2h-1.2c0,0-5.9.5-5.9.5v-.2c-.1,0-2.2-3.7-2.2-3.7M392.3,167.3l-1.2-.4-1.5,1.1v3.5c.1,0,.3,3.7.3,3.7l-.6,2.1-3.4,1.8-1.3,2.4-.4,1.2,2.5,2.8-.9,2.1v1.2c0,0-.4,1.9-.4,1.9l.3,3.1-.3,1.7.8.5,2,2,2.3.3.8,1.2,1.6.6,1.3.6,1.2,2.4,3.2,2.3,1.4.5,1.6,1.9.4,1.7.5,3.2.2,1.1v1c0,0,1.7,1.3,1.7,1.3l-1.1,2.6.3,1.3,1.3,3.6,1.6.8,1.9.4.9,1.8,1.9,1.8,1.8,2.6,1.7,1v1.2c.1,0,.2,1.5.2,1.5l-.8,2.2-.7.9-.2,2-1.2,1-3.4,1.2-2.8.8-.2,1.2-.4,1.4,1.9,2.3h0c0,0,0,2.2,0,2.2l-1.3,1.7v1.7c0,0-.8.9-.8.9l-1.7.5-.6,3.4h-.7c0,0-2.6-3.1-2.6-3.1h-2.4s-2.5.2-2.5.2h-1.9c0,.1-3.1.3-3.1.3h-.9s-4.1.3-4.1.3h-3c0,.1-1.9.2-1.9.2l-2.4.2h-2.6c0,0-2.3.2-2.3.2h-2.6s-1.7,0-1.7,0h-3.1s-3.1,0-3.1,0h-1.8c0,0-4.3,0-4.3,0l-1.3-2.3.5-.6.2-1.7-.7-2.2v-1.6s-.5-.5-.5-.5v-2.9c-.1,0-.8-1.7-.8-1.7l-1-.4-.3-2.2.5-1.7-.7-.9v-1.5c.1,0-1.4-1.1-1.4-1.1l-.9-2.4v-.9s-.2-2.4-.2-2.4l-.7-.6-.6-1-1.5-2.6,1.1-2.5.9-2.5-1-2.5.3-2-.8-1.5h1.5s4.1,0,4.1,0h2s4.2,0,4.2,0h.7s4.9,0,4.9,0h.7s4.3,0,4.3,0h2s2.9,0,2.9,0h3.3c0,0,1.6-.1,1.6-.1h4.6c0-.1.2-.1.2-.1l4.9-.2h1.1s3.8-.2,3.8-.2l3.6-.2h1.3c0,0,4-.3,4-.3M523.4,217.3l.7,3.9,1.6-.3,5.7-1,1.4-.3,6.4-1.2,1-.2,4.8-.9,1.4-.3,6.7-1.4h.4c0,0,3.8-.8,3.8-.8l4.3-.9h.4c0,0,6.4-1.5,6.4-1.5l.9-.2,3.1,1.5,1.3,1.2.3,2.2,2.4,1.9h1.5c0-.1.8.7.8.7l-1.2,1.5-1,3h.2c0,0-1.2,2.1-1.2,2.1l1,1.2-1,1.6.3,2.4v.2c.1,0,1.6.4,1.6.4l.5,1.7,1.4.8,3,2.2-2.4,2-.7,1-.6,1.6-.7.5-1.9,1.4h-2c0-.1-1.7,2-1.7,2l-3.7.8-1.1.3h0s-3.5.8-3.5.8l-2.3.5-2.3.5-2.3.5-2.6.5h-.1s-6.8,1.3-6.8,1.3l-2.6.5h-.4c0,0-4.6.9-4.6.9l-1.3.2-4.9.9-.9.2-3.1.5-1.6.3-5.4.9-1.1.2-.6-3.4v-.8c-.1,0-.5-2-.5-2l-.6-3.5-.2-1.1-.4-2.3-.5-3v-.7c-.1,0-.6-3.2-.6-3.2h0c0-.1-.8-5.2-.8-5.2v-.2s-.8-5-.8-5l-.3-1.8M355.5,256.3l.6.9,1.7,3.8h0s2.7,3.8,2.7,3.8h-.4s-4.9,0-4.9,0h-2.4s-2.5,0-2.5,0h-2.4s-3.7,0-3.7,0h-1.2s-4.9-.1-4.9-.1h-4.9c0,0-1.2-.1-1.2-.1h-3.7c0,0-2.5-.1-2.5-.1h-2.4c0,0-3.7-.2-3.7-.2h-1.2s-4.9-.2-4.9-.2h0s-6-.2-6-.2h-.1s-5.9-.3-5.9-.3h-.2s-6.2-.3-6.2-.3h-1c0,0-6.9-.5-6.9-.5l.3-5v-1.3c0,0,.3-3.7.3-3.7v-.8s.3-3.7.3-3.7l-6.1-.4h-.3s-7.8-.6-7.8-.6l-2.1-.2-5.1-.4.5-5.6.2-2.5.2-1.9.4-4.4.7-8.8.4-5.6,5.7.5,5.2.4,2.2.2,7.4.5,8.9.5,10.8.5,6.9.3h2.9c0,.1,7.9.3,7.9.3l2,1.7,1.6.7,2.1,1.1,1.1-1.4,2.2.3h1.6s1.9-.2,1.9-.2l1.5,1,1.6.6,2.2.8,1.8,2.6,2,.5M402.6,258.1l-.8,1.9v.7s.2,2.3.2,2.3l.7,1.3.9,2.7.7,1,1.4,1.2,2.8,2.7,2.5,2.4.8,4.1,1.4.8,1-1.4,1.9.6,1.8,1.6-.5.5v1.6s-.8,1.9-.8,1.9v.2c0,0-.8,1.9-.8,1.9v2.5s1.2,1.2,1.2,1.2l.6.5,2.3,1.6.9,1.3,1-.5,2,1.3,1.9,1.6v1.6s0,0,0,0l1.3,2.4-.6.9v1.2s1.5,3,1.5,3l.7.4,2.1.2.4.5v2.3c0,0-.5,2-.5,2l-1.7.4-.8,2h-.8c0,0-.6,0-.6,0v2.4c.1,0-.7,2.2-.7,2.2l-1,2.8-2.6.2-3.8.3h-1c0,0,2-3,2-3l1.1-1.1v-1.7c0,0-1.8-1.5-1.8-1.5l-4.1.2h-2.4c0,.1-3.9.3-3.9.3l-3.2.2h-.5s-2.5,0-2.5,0l-5.1.3h-.3s-4.3.2-4.3.2h-2.8c0,0-.9.1-.9.1l-5,.2h-.3s-3.1,0-3.1,0h-3.2c0,0-2.4.1-2.4.1h-6.2M368.7,308.1v3.3s0,1.4,0,1.4v2.5s.8,4.8.8,4.8v.9c.1,0,.9,5,.9,5l.2,1.7.6,3.5h0c0,.1,0,6.7,0,6.7v3s0,3.2,0,3.2v4.6s0,3.6,0,3.6v4.4s-3-1-3-1l-2.1-1.1-2.8-2.1-1.8.8h-2.7s-.4-.7-.4-.7l-2.9,1-.4.3h-3.6s-.2,1-.2,1l-2.5.7-2.9-1.7.4-.8-1.2.6h-2.1c0,0-.8-1.5-.8-1.5h-.1c0,0-2.7,3.1-2.7,3.1l-.4-2.6-2,1.4-1.3-1.4-.9.2-1.3-1.4-2,1.9-1.7-.5-1.2-1.7-.6-2-2.6-.3-.7,1.1-2.2-1.1-1.8.2-2.2-1.1h-2.8c0-.1-.2-1.9-.2-1.9l-2.1-1.6-1,.7h-2.6c0,0-1.7-1.8-1.7-1.8l-1.8-.9v-2.7c0,0,.2-4.1.2-4.1v-2.2c0,0,.2-3.5.2-3.5v-2.8c.1,0,.3-3.8.3-3.8v-2.5c.1,0,.3-6.4.3-6.4l-6.2-.2-4.7-.3h-1.5s-6.2-.4-6.2-.4l-4.7-.3h-1.4c0,0-9.6-.8-9.6-.8l.5-7.2,10.8.8h.2s5.4.3,5.4.3l5.6.3h1.4c0,0,3.5.2,3.5.2l6.2.3h1s5.2.3,5.2.3h1s5.2.2,5.2.2l5.1.2h2.3c0,0,2.6.1,2.6.1h3.5c0,0,3.8.1,3.8.1h3.6s4.5,0,4.5,0h2.6s5.9,0,5.9,0h.4s2,0,2,0h3s1.4,0,1.4,0h3.8s.7,0,.7,0h4.4s0-.9,0-.9v-4.1c0,0,0-.4,0-.4v-4.2c0,0,0-.3,0-.3v-5.3s0-.3,0-.3v-4.8c0,0,0-1.3,0-1.3v-3.7s0-1.6,0-1.6v-2.9s0-1,0-1v-.7c0,0-1.8-.6-1.8-.6l-2.2-3.1-1.5-1.7.5-1.2,1.9-3-1.3-1.1-.9.5-2.5-2M425,320.3l1.1,1.3-1.4.3-.4,2-1.5.4.6,2.9h-1.5s0,2,0,2h0c0,0-1-.3-1-.3l.8.7-.8,1.8v2.1c0,0-1.5,1.9-1.5,1.9l.2,1.9-1.2.5-1.1,3h-.8c0,0,.2,1.6.2,1.6v1.4c.1,0-2.9,2.5-2.9,2.5l-1.4,2.2h0s.9,1.3.9,1.3l-2.3.9.5,2.8-.3,1.7h-1.6s0,1.5,0,1.5l.2.4,1.8,4.4-.8,3.1h0c0,.1-1.2.2-1.2.2h-2.1c0,.1-.3.1-.3.1l-7.2.3-7.9.2h-3.2c0,0-3,.2-3,.2h-3c0,0-.4,0-.4,0h-3.4c0,0-.1,0-.1,0h-2.7c0,0,0-4,0-4v-3.6c0,0-1.8-.6-1.8-.6l-2.5.7-1.2-1.2M376.4,365.6v2s0,2.7,0,2.7v4.4c0,0,.1,2.8.1,2.8l.4,3.1,1.6,1.9,1,2.3-.3,1.4,2.1,3.2.8,2.6h.6c0-.1.5,2.2.5,2.2l-.5,2.2-.7,2.5-1.3,1.8v2.5c-.1,0,.4,2.3.4,2.3v2.8c-.1,0-1.7,2.7-1.7,2.7l-.9,1,1.2,1.5M225.4,376.6l-1.1-1.3.4-1.9,2.9.3,4.6.5,13,1.3h.8c0,0,9.9,1,9.9,1h.6s3.1.3,3.1.3l4.8.4,3.2.2v-1.2c0,0,.6-6.3.6-6.3l.5-6.3.5-6.2.2-2.6.3-3.6.6-6.9h0c0-.1.5-6.4.5-6.4l.3-3,.2-3.3.5-6.4v-1.7c.1,0,.5-4.5.5-4.5l.5-6.5h.5M163.1,217.8l10.8,2,8.7,1.6h.6c0,0,6.3,1.1,6.3,1.1l4.8.8-1,6-.8,4.7-.6,3.6,10.6,1.6h.5c0,0,10.1,1.5,10.1,1.5l-.6,4.9-.9,6.3-1.1,8.1-.3,2.3-.3,1.9-1.8,12.4-.5,5-.5,3.9-.8,5.7-1,7-10.7-1.5-8.4-1.3-6.7-1-13.3-2.3-4-.7-12.8-2.4M194.1,379.2l2.2-15.6.7-5,.9-6.2,1.1-8.1,1.6-11.5.8-5.5,2.1-15,2-14.3,7.5,1,10.1,1.3h.7c0,0,10.7,1.4,10.7,1.4l5.3.5,3.3.3,5.6.6h.7c0,0,13,1.2,13,1.2l10.4.8h1M284.4,306.1l.4-5.7.2-3.7v-1.4c0,0,.5-7.6.5-7.6h0c0,0,.3-5.1.3-5.1v-1.2c0,0,.4-5.1.4-5.1v-1.2c0,0,.4-6.3.4-6.3h0c0,0,.4-6.3.4-6.3M433.1,404l-1.1-.6-1.2-3.2-2.1-2.9,1.2-4.9h-1.3c0,0-5.2.4-5.2.4h-1.1c0,0-2.4.2-2.4.2h-.2s-3.2.2-3.2.2l-2.9.2h-1.4c0,0-5.6.3-5.6.3l.4-2.8.8-1.2v-3.7c-.1,0,1.2-1.7,1.2-1.7v-1.3c0,0,.9-.2.9-.2l.8-1.8,2.4-3.7h0c0,0-.3-.1-.3-.1l-.9-1.2h1.6c0-.1,1.1-1.8,1.1-1.8l-1.3-.5-1.4-1.6.5-1.2.3-.2-1.4-.8-.4-5.2M419.3,335.3l6.8-.4h.9c0,0,3.4-.3,3.4-.3h1.8c0-.1,2.1-.3,2.1-.3l2.3-.2h.4s4.8-.4,4.8-.4h.2s1.9-.2,1.9-.2M348.3,214.2v-5s0-5,0-5v-5s0-1.3,0-1.3v-2.5s0-2.5,0-2.5v-4.2s-.1-.8-.1-.8l-2.1-1.2-1.5-2.5v-.8c0,0,1.8-1.4,1.8-1.4l.9-2.7v-1.2c-.1,0-.3-4.4-.3-4.4l-1.3-2.2-.5-2.1h0s-.3-7.5-.3-7.5v-1.3s-.2-3.7-.2-3.7l-.4-2.5-1.5-3.9-.9-3.2v-.3s0-4.9,0-4.9l.6-2-1.2-4.5M408.2,168.5l2.1.8,1.1,2.3,1.9.4,8.5,1.8,1,.5.6.3,2.5.7,5.7.9.8,2,2.2.7.7.7-.4,4.6h2.2s-.8,2.2-.8,2.2l1.6,1.3M439.1,225l-4.2.3h-1.1c0,.1-4.2.5-4.2.5h-.7c0,0-1.7.2-1.7.2l-4.4.2h-.4s-4.6.2-4.6.2h-.9c0,0-5.2.3-5.2.3h-2.3M428.1,312.9h.8c0-.1,5.8-.5,5.8-.5h0s.1,0,.1,0l3.4-.2h.3s5-.4,5-.4l-.4-2.6,4.3.2h.6c0,0,3.5-.4,3.5-.4l2.5-.2h.6c0,0,3.4-.5,3.4-.5h2.3s1.7-.4,1.7-.4h2.3c0,0,2.6-.2,2.6-.2h2.1c0-.1,4-.5,4-.5l1.6-.3h.2s3.4-.3,3.4-.3h2.2c0,0,0,0,0,0l5.9-.6h.4c0,0,2.7-.3,2.7-.3h.7c0,0,2.9-.6,2.9-.6l2.3-.3,5.5-.7,1.7-.2,2.5-.4,3.5-.5h.6c0,0,1.1-.2,1.1-.2l3.6-.8,2-.3-.3.4-.2,2.9-1.9,1.8v.3c-.1,0-1.4,2.5-1.4,2.5l-1.8-.5-2,1.5-.8,1.5-1.2-.7-3.2,1.8-.4,2.3-1.6.5-1.7,1.1v.3s-2.5,2.3-2.5,2.3l-1.9.2-1.2.3-1.9,1.7h-.1c0,0-.5,2.5-.5,2.5l-2.9,1.6v3.2M493.2,304.9l2.3-1.3,2.9-1.5,1.1-1.8,2.1-.9v-1.2c0,0,1.3-2.3,1.3-2.3l1.6-1.3h0c0-.1,2.5-1.8,2.5-1.8l3.3-4,.5.3.3,2.2,2.4,1.4,2.1.2,1.9-2.3,1.8,1.2,2.6-1.2,1.3-1-.3-1.1,1.8.2,1.5-1.4,1,.6,1.7-1.6.6-1.8-1-.8,1.1-2.9,1-1.3.8-1.8.4-2,.9-1.2.8-2.6v-2.4s2.3,1.6,2.3,1.6l1.9.3.8-1.1,1.1-4.4.4-1.4,1.6,1,.5-1.9,1.8-1.5.4-1.4.3-.5.9-1.3-.2-4.4,1.5.8,2.5,1.4,2.6,1.5.7-2.9h.4c0-.1,2.7.9,2.7.9l.4,2.1h1.5s2.6,1.3,2.6,1.3l1.1,1.2.2.7h0c0,0-.3,1.3-.3,1.3l-.3,1.1M581.1,290.4l-2.8.6-2.2.5-2,.4h-.5c0,.1-4.2,1-4.2,1h0c0,0-2.8.6-2.8.6l-1.5.3-5.2,1-1.5.3-1.6.3-3.1.6-1.5.3-3.1.6h-.7c0,.1-3.9.8-3.9.8l-.9.2-1.4.2-1.4.3h-.5c0,0-2.3.4-2.3.4l-3.5.6h-.3c0,0-4.3.6-4.3.6l-2,.2-2.6.4h-.7c0,0-5.1.7-5.1.7l-3.7.4M579,270.2l.4-.7,4.1-1.4M129.8,348.1h2.2c0-.1,1.1-1.2,1.1-1.2v-2.7c0,0-2.1-1.4-2.1-1.4l.8-2.4-.2-1.9,1.3-.2,2.2-3.5.2-3.3,1.6-2,2.4-.9,1.7-1.6-1.9-2.6-.8-4-1.4-2.5.4-1.9M430.9,305.7l-.5-1.2,1.7-2.4h.8c0,0,0,0,0,0l4.3,1.8h.8c0,.1.6-1.2.6-1.2l-1.2-1.8,1-2.1.7.2,3.2-1.7-.9-.9-.4-1.3,1.3-2.1,1-1.6,2.6-.2,2.8-.9,1.7.5.4.3,2.3.9.9-1.9,1.7-1.2,2,2.1,1.2-1.2.3-1.9.2-1.1,1.3-1,.9,1.7,3.1.5.6-.2.2-.3v-2.2s1-1.7,1-1.7l1.6-1.5,2-2.3v-.9s-.5-1.7-.5-1.7l1.3-.5,1.5.5,1.8-1.3,2.3-.7v-1c0,0-.8-.5-.8-.5l-.3-1.8.5-1.1,2.2.2,1.3-.5,2.2.8,1.2,2v.7c.1,0,2.1.5,2.1.5h1.6c0-.1,2.5,1.4,2.5,1.4h.6s1.3-1.2,1.3-1.2l2.9.9,1.4-.3.9-1.3,1.6-1,1.2,2.5,1.8.7,1,1.1.2,2.5v1.6c-.1,0,1.8,2.5,1.8,2.5l1,1.2,1.2,1.5,1.6,1.5,2.9.9M269,217.8l.6-6.8v-.4s.5-5.1.5-5.1l.3-4.1v-.6s.5-5.6.5-5.6l.5-6.1.4-3.1.8-9.6v-.9c0,0,10.5.8,10.5.8h.5s9.4.7,9.4.7h0s14.8.9,14.8.9h.1s6.2.3,6.2.3h1.6c0,0,7.1.3,7.1.3h2.8c0,.1,7.1.3,7.1.3h.3s7.5.1,7.5.1h6.6M101.6,204l6.5,1.7h.4c0,0,11.6,2.9,11.6,2.9l12.1,2.8h0s11.8,2.6,11.8,2.6l8.6,1.8,7.9,1.6,2.5.5-2.7,14.1-2.4,12.5-.6,3-1,5.1-2.4,12.3-.3,1.5-1.2,6.1-1.5,7.7-1.6,8.6-.4,2.2-1.7,9.3-1.7,2.2h-1c0,0-1.1-2.1-1.1-2.1l-2.2-.6-2,.3-.4,2.3v4.9c0,0-.7,1.6-.7,1.6l.5,2.5-.3,2.7-1.1,1.8-9.2-13.8-1.8-2.7-6.2-9.3-5.5-8.2-5.7-8.7-5.1-7.6-6.1-9.2-1.4-2.1-2.1-3.2-2.6-3.9-.5-2.2v-.6c.1,0,.3-.8.3-.8l.5-2.1.5-1.8,1-3.9,2.9-10.9,2.4-9.6,3-11.3-9-2.4-5.8-1.6-8.6-2.6-9.6-2.7-2.9-.8-3.1-.8-4-1.3M82.9,135.1l1.3,2.1h1.5s1,.1,1,.1l1.6,2,.2,3.6-.2,1.8.4,1.8,3.8,2.1,3.6-.5.7-.5,3.4.5.7.6,4.8,2.2,2.9-.7,1.3.9,2.9.4,2.4-.7h1.4s4.5,0,4.5,0l3,.5,1.6-.6,9.6,2.3h.2s3.6.9,3.6.9l1.2.3,5.5,1.3.8,2.3,1.7,1.5.8,2.6-3.3,4.4-1.5,2.5-1.9,3-1.7,1-1.6,2.6-1,.8-.5,2.5,1.1.5,1.7,2.2-1.7,3.7-1.1,2.7-2.1,9.2-3.3,14.5M485.9,230.9l-3.2.6-1.2.2-5,.8h-.4c0,0-4.2.7-4.2.7l-.3-.9-3.9.5h-1c0,0-3.9.5-3.9.5l-1.4.2-2.9.3-1.7.2-3.2.4-3.2.3M519.3,241.9l-1.5,1,.8,2.6.5,1.1-.5,2-.2.4v1.8c0,0-.6,2.8-.6,2.8l.2,1.9-.9,1.8-.9,1.1-.7,1.3-2.5,2.1-1.1-.8-2.5,3.2-.2.5.2,1.2v2.5s-1.3.9-1.3.9l-.5-1.5-1.7.7-1,2.5.4,2.9-.7.2v2c0,0-2,.8-2,.8h-.9M476,270.5l-.3-2.9-.3-3.1v-.7c0,0-.4-2.3-.4-2.3l-.3-2.7v-1.3c-.1,0-.6-4.4-.6-4.4v-.6c-.1,0-.4-3.2-.4-3.2l-.3-2.3-.3-2.8v-.9c-.1,0-.6-3.8-.6-3.8v-.3s-.3-2.2-.3-2.2l-.2-1.5-.3-2.4M580.3,165.2l1.4,6.3.3.2,1.2,3.9-.5,3.4,1.4,3.1.4.8,1.9,2.9.7,3,1.1,5.3.8,2.7v3.5c0,0-.3,6.4-.3,6.4l.3.5h.1s1,5.5,1,5.5l.3,2,.4,2.3,1.2,2-2.2,2.2,1.1,1.4M587.6,227.5l.3-1.7.3-1.3v-.5c0,0,0-1.2,0-1.2l-3.8-1.1h-.3c0,0-1.6-.6-1.6-.6l-4-1.4M586,230.7l.3-1.4.3-.8.9-.5M442.4,292.9l-.8-1.3.4-2.3.9-1.9-.6-.8v-.4s1.4-.4,1.4-.4l1-2.1.8-2.3,1.3-2-.4-2.2v-.8s-1.6-3.5-1.6-3.5l.3-1.5.7-1.3-.2-1.9-.2-1.9-.4-4-.3-3.8-.4-4.7v-.2s-.3-3.5-.3-3.5l-.4-4-.2-2.2-.2-1.9-.2-2.5-.3-3.4M558.3,334.9l-1.5-1.1-5.8-4.1-5.2-3.8h-.2c0-.1-3.1-2.1-3.1-2.1l-2.7.4-4.6.6-2.8.4-2.7.4-.9-2.5-.9-.9-1.7-.8-3.3.3h-.5s-4.6.5-4.6.5h-1.3c0,.1-1.1.3-1.1.3l-2.8.3-1.5.3-2.5,1-2.1,1.4-1.5.4-1.2.6-1.1.5M613.6,185.6l-1.4-.6-.4-1.6-1.9-1-.7-2.8-1.2-3.4-2.1-6.8-4.5-14M272.7,175.6l.4-4.8.3-3.7v-1.4c.1,0,1-9.8,1-9.8v-.9c0,0,.8-8.5.8-8.5l.4-5.6.3-3.5.4-5.2M213.3,240.7l12.1,1.6,6.4.8,4.9.6,5.7.7,1.4.2,9.7,1,3.6.3,9.5.8M194.4,223.2l1.2-7.3,1.2-7.2.7-4.2.4-2.6,1.1-6.9,1.1-7,.4-2.7.9-4.7,3.4.7,9.1,1.2,11.8,1.7,3.7.5,3.4.4,16.6,2,2.4.3,9.6.9h.4s9.9,1,9.9,1M200,188l-1.6-1.8-1.1-2.7-1.1.4-1.7,2.1-2.2.2-.3-.9-2.5.2-1.7-1-2.1,1-3.1-.6-.6,1.5-1.7-1.4-.5-4.8-3-1.9.5-2.7-1-1.2-1.1-3.1-.5-2.9.5-1.1-1.1-1.4-4.5,2.5-1.9-1.9,1-2.1-.4-.8,2.1-1.2-.6-2.5.9-2.7,2.3-4.9v-.7s-2.6,0-2.6,0l-.5-1.6-2.1-1.9v-1.4c0,0-2.2-3.6-2.2-3.6l-.5-1.6-1.8-1.1-1.5-2.1,1-.6-.3-3.2-.8-1-1.4-3.6.7-3.3.9-4,1.5-6.9M145.9,155.4l.4-2.5-.7-2.7.4-1.1.4-1.6,1.8-8.2.4-1.8.3-1.5,1.9-8.5.2-1,2.6-11.1.5-2.1M572.3,245.3l1.3,4.8.3,1.1.2.7.4,1.5,1.2,4.4.8,2.7.3,1,.4,1.4,3.9-.7,3.2-.7M561.6,261.4l1.1-1.7-1.3-.8-1.2.7M552.7,255.3l-1.6-2.3-.5-1.6-2,.2-1.8-.7-1.6,1.1-1.1,2h-2.1c0,0-1.9-.3-1.9-.3l-1.1,2h-1.2c0,0-1.9,2.6-1.9,2.6l-2,2.1-1.2-7.4M575.4,245.2l.7-1.8h0M598.4,160.6l.4,1.4-.7,2.7,1.2,1.4v2.1s-1.3,1.5-1.3,1.5l-.5,1-2,1.7.7,1.5-.3,5.8-.6,2.7-.4.4.6,5v1.1c0,0,.6,2.1.6,2.1l-.7,1.1.4,2,1.1.9-4.8,1-1,.2-2.5.5M608.3,213l.3-1.5-.6-2.6-.2-.6-.3-1.1-1.1-4,3.1-.9h1.3c0,.1,1.4,2.9,1.4,2.9l1.2.7M613.8,206.3l1.4,2.3M613.2,188.6h-1.2c0,.1-2.6,3-2.6,3h0c0,0-.3.8-.3.8l-6.2,1.4h-.3c0,0-3.6.9-3.6.9l-1.8.4M588.9,207l4.5-1h.5c0,0,5.1-1.3,5.1-1.3l3.9-.9h.3c0,0,3.2-.6,3.2-.6"/>
      <path class="st1" d="M42,99.8"/>
    </g>
    <text class="st8" transform="translate(42 503.8)"><tspan x="0" y="0">Map:</tspan></text>
    <text class="st8" transform="translate(69.2 503.8)"><tspan x="0" y="0">Yating Wang</tspan></text>
    <text class="st8" transform="translate(136.4 503.8)"><tspan x="0" y="0"></tspan></text>
    <text class="st8" transform="translate(143 503.8)"><tspan x="0" y="0">Source:</tspan></text>
    <text class="st8" transform="translate(183.7 503.8)"><tspan x="0" y="0">U.S. Food &amp; Drug Administration</tspan></text>
    <text class="st8" transform="translate(345.3 503.8)"><tspan x="0" y="0"></tspan></text>
    <text class="st8" transform="translate(351.9 503.8)"><tspan x="0" y="0">Created with</tspan></text>
    <text class="st8" transform="translate(416.4 503.8)"><tspan x="0" y="0">Datawrapper</tspan></text>
  </g>
</svg>