<?xml version="1.0" encoding="UTF-8"?>
<svg xmlns="http://www.w3.org/2000/svg" xmlns:xlink="http://www.w3.org/1999/xlink" version="1.1" viewBox="0 0 521.2 432">
  <!-- Generator: Adobe Illustrator 29.3.1, SVG Export Plug-In . SVG Version: 2.1.0 Build 151)  -->
  <defs>
    <style>
      .st0 {
        fill: none;
      }

      .st1 {
        font-size: 11px;
      }

      .st1, .st2, .st3 {
        isolation: isolate;
      }

      .st1, .st2, .st4 {
        font-family: ArialMT, Arial;
      }

      .st2 {
        font-size: 9.1px;
      }

      .st5 {
        fill: #fc8d62;
      }

      .st5, .st6, .st7, .st8, .st9 {
        stroke: #fff;
        stroke-miterlimit: 10;
        stroke-width: .2px;
      }

      .st10 {
        font-family: MyriadPro-Regular, 'Myriad Pro';
      }

      .st10, .st3 {
        font-size: 15px;
      }

      .st6 {
        fill: #e78ac3;
      }

      .st11 {
        letter-spacing: .2em;
      }

      .st12 {
        letter-spacing: .2em;
      }

      .st13 {
        letter-spacing: .2em;
      }

      .st14 {
        letter-spacing: 0em;
      }

      .st3 {
        font-family: Arial-Black, 'Arial Black';
        font-weight: 800;
      }

      .st15 {
        letter-spacing: 0em;
      }

      .st4 {
        font-size: 8px;
      }

      .st7 {
        fill: #a6d854;
      }

      .st8 {
        fill: #8da0cb;
      }

      .st9 {
        fill: #66c2a5;
      }

      .st16 {
        letter-spacing: 0em;
      }
    </style>
  </defs>
  <g id="Layer_1">
    <rect class="st0" width="576" height="432"/>
    <rect class="st0" width="576" height="432"/>
    <rect class="st0" width="576" height="432"/>
    <rect class="st0" x="73" y="39.1" width="337.5" height="371.6"/>
    <rect class="st6" x="88.4" y="56" width="27.9" height="27.9"/>
    <rect class="st6" x="119.4" y="56" width="27.9" height="27.9"/>
    <rect class="st6" x="150.4" y="56" width="27.9" height="27.9"/>
    <rect class="st6" x="181.4" y="56" width="27.9" height="27.9"/>
    <rect class="st6" x="212.3" y="56" width="27.9" height="27.9"/>
    <rect class="st6" x="243.3" y="56" width="27.9" height="27.9"/>
    <rect class="st6" x="274.3" y="56" width="27.9" height="27.9"/>
    <rect class="st6" x="305.3" y="56" width="27.9" height="27.9"/>
    <rect class="st6" x="336.3" y="56" width="27.9" height="27.9"/>
    <rect class="st6" x="367.3" y="56" width="27.9" height="27.9"/>
    <rect class="st6" x="88.4" y="87" width="27.9" height="27.9"/>
    <rect class="st6" x="119.4" y="87" width="27.9" height="27.9"/>
    <rect class="st6" x="150.4" y="87" width="27.9" height="27.9"/>
    <rect class="st6" x="181.4" y="87" width="27.9" height="27.9"/>
    <rect class="st6" x="212.3" y="87" width="27.9" height="27.9"/>
    <rect class="st6" x="243.3" y="87" width="27.9" height="27.9"/>
    <rect class="st6" x="274.3" y="87" width="27.9" height="27.9"/>
    <rect class="st6" x="305.3" y="87" width="27.9" height="27.9"/>
    <rect class="st6" x="336.3" y="87" width="27.9" height="27.9"/>
    <rect class="st6" x="367.3" y="87" width="27.9" height="27.9"/>
    <rect class="st6" x="88.4" y="118" width="27.9" height="27.9"/>
    <rect class="st6" x="119.4" y="118" width="27.9" height="27.9"/>
    <rect class="st6" x="150.4" y="118" width="27.9" height="27.9"/>
    <rect class="st6" x="181.4" y="118" width="27.9" height="27.9"/>
    <rect class="st6" x="212.3" y="118" width="27.9" height="27.9"/>
    <rect class="st6" x="243.3" y="118" width="27.9" height="27.9"/>
    <rect class="st6" x="274.3" y="118" width="27.9" height="27.9"/>
    <rect class="st6" x="305.3" y="118" width="27.9" height="27.9"/>
    <rect class="st6" x="336.3" y="118" width="27.9" height="27.9"/>
    <rect class="st6" x="367.3" y="118" width="27.9" height="27.9"/>
    <rect class="st6" x="88.4" y="149" width="27.9" height="27.9"/>
    <rect class="st6" x="119.4" y="149" width="27.9" height="27.9"/>
    <rect class="st6" x="150.4" y="149" width="27.9" height="27.9"/>
    <rect class="st6" x="181.4" y="149" width="27.9" height="27.9"/>
    <rect class="st6" x="212.3" y="149" width="27.9" height="27.9"/>
    <rect class="st6" x="243.3" y="149" width="27.9" height="27.9"/>
    <rect class="st6" x="274.3" y="149" width="27.9" height="27.9"/>
    <rect class="st6" x="305.3" y="149" width="27.9" height="27.9"/>
    <rect class="st6" x="336.3" y="149" width="27.9" height="27.9"/>
    <rect class="st6" x="367.3" y="149" width="27.9" height="27.9"/>
    <rect class="st6" x="88.4" y="180" width="27.9" height="27.9"/>
    <rect class="st5" x="119.4" y="180" width="27.9" height="27.9"/>
    <rect class="st5" x="150.4" y="180" width="27.9" height="27.9"/>
    <rect class="st5" x="181.4" y="180" width="27.9" height="27.9"/>
    <rect class="st5" x="212.3" y="180" width="27.9" height="27.9"/>
    <rect class="st5" x="243.3" y="180" width="27.9" height="27.9"/>
    <rect class="st5" x="274.3" y="180" width="27.9" height="27.9"/>
    <rect class="st5" x="305.3" y="180" width="27.9" height="27.9"/>
    <rect class="st5" x="336.3" y="180" width="27.9" height="27.9"/>
    <rect class="st5" x="367.3" y="180" width="27.9" height="27.9"/>
    <rect class="st5" x="88.4" y="211" width="27.9" height="27.9"/>
    <rect class="st5" x="119.4" y="211" width="27.9" height="27.9"/>
    <rect class="st5" x="150.4" y="211" width="27.9" height="27.9"/>
    <rect class="st5" x="181.4" y="211" width="27.9" height="27.9"/>
    <rect class="st5" x="212.3" y="211" width="27.9" height="27.9"/>
    <rect class="st5" x="243.3" y="211" width="27.9" height="27.9"/>
    <rect class="st5" x="274.3" y="211" width="27.9" height="27.9"/>
    <rect class="st5" x="305.3" y="211" width="27.9" height="27.9"/>
    <rect class="st5" x="336.3" y="211" width="27.9" height="27.9"/>
    <rect class="st5" x="367.3" y="211" width="27.9" height="27.9"/>
    <rect class="st5" x="88.4" y="242" width="27.9" height="27.9"/>
    <rect class="st5" x="119.4" y="242" width="27.9" height="27.9"/>
    <rect class="st5" x="150.4" y="242" width="27.9" height="27.9"/>
    <rect class="st5" x="181.4" y="242" width="27.9" height="27.9"/>
    <rect class="st5" x="212.3" y="242" width="27.9" height="27.9"/>
    <rect class="st5" x="243.3" y="242" width="27.9" height="27.9"/>
    <rect class="st5" x="274.3" y="242" width="27.9" height="27.9"/>
    <rect class="st5" x="305.3" y="242" width="27.9" height="27.9"/>
    <rect class="st5" x="336.3" y="242" width="27.9" height="27.9"/>
    <rect class="st5" x="367.3" y="242" width="27.9" height="27.9"/>
    <rect class="st5" x="88.4" y="273" width="27.9" height="27.9"/>
    <rect class="st5" x="119.4" y="273" width="27.9" height="27.9"/>
    <rect class="st8" x="150.4" y="273" width="27.9" height="27.9"/>
    <rect class="st8" x="181.4" y="273" width="27.9" height="27.9"/>
    <rect class="st8" x="212.3" y="273" width="27.9" height="27.9"/>
    <rect class="st8" x="243.3" y="273" width="27.9" height="27.9"/>
    <rect class="st8" x="274.3" y="273" width="27.9" height="27.9"/>
    <rect class="st8" x="305.3" y="273" width="27.9" height="27.9"/>
    <rect class="st8" x="336.3" y="273" width="27.9" height="27.9"/>
    <rect class="st8" x="367.3" y="273" width="27.9" height="27.9"/>
    <rect class="st8" x="88.4" y="304" width="27.9" height="27.9"/>
    <rect class="st8" x="119.4" y="304" width="27.9" height="27.9"/>
    <rect class="st8" x="150.4" y="304" width="27.9" height="27.9"/>
    <rect class="st8" x="181.4" y="304" width="27.9" height="27.9"/>
    <rect class="st8" x="212.3" y="304" width="27.9" height="27.9"/>
    <rect class="st8" x="243.3" y="304" width="27.9" height="27.9"/>
    <rect class="st9" x="274.3" y="304" width="27.9" height="27.9"/>
    <rect class="st9" x="305.3" y="304" width="27.9" height="27.9"/>
    <rect class="st9" x="336.3" y="304" width="27.9" height="27.9"/>
    <rect class="st9" x="367.3" y="304" width="27.9" height="27.9"/>
    <rect class="st9" x="88.4" y="334.9" width="27.9" height="27.9"/>
    <rect class="st9" x="119.4" y="334.9" width="27.9" height="27.9"/>
    <rect class="st9" x="150.4" y="334.9" width="27.9" height="27.9"/>
    <rect class="st9" x="181.4" y="334.9" width="27.9" height="27.9"/>
    <rect class="st9" x="212.3" y="334.9" width="27.9" height="27.9"/>
    <rect class="st9" x="243.3" y="334.9" width="27.9" height="27.9"/>
    <rect class="st9" x="274.3" y="334.9" width="27.9" height="27.9"/>
    <rect class="st9" x="305.3" y="334.9" width="27.9" height="27.9"/>
    <rect class="st7" x="336.3" y="334.9" width="27.9" height="27.9"/>
    <rect class="st7" x="367.3" y="334.9" width="27.9" height="27.9"/>
    <rect class="st7" x="88.4" y="365.9" width="27.9" height="27.9"/>
    <rect class="st9" x="417.1" y="230" width="19.4" height="19.4"/>
    <rect class="st5" x="417.1" y="191.5" width="19.4" height="19.4"/>
    <rect class="st8" x="417.1" y="211.2" width="19.4" height="19.4"/>
    <rect class="st6" x="417.1" y="171.6" width="19.4" height="19.4"/>
    <rect class="st7" x="417.1" y="249.6" width="19.4" height="19.4"/>
    <text class="st2" transform="translate(442.9 243.3)"><tspan x="0" y="0">Biologics</tspan></text>
    <text class="st2" transform="translate(442.9 204.8)"><tspan x="0" y="0">Devices</tspan></text>
    <text class="st2" transform="translate(442.9 224.5)"><tspan x="0" y="0">Drugs</tspan></text>
    <text class="st2" transform="translate(442.9 183.8)"><tspan x="0" y="0">Food/Cosmetics</tspan></text>
    <text class="st2" transform="translate(442.9 262.1)"><tspan class="st16" x="0" y="0">Veterinar</tspan><tspan x="41.2" y="0">y</tspan></text>
    <text class="st1" transform="translate(87.8 49.1)"><tspan x="0" y="0">Each</tspan><tspan class="st12" x="25.1" y="0"> </tspan><tspan class="st15" x="30" y="0">tile</tspan><tspan class="st13" x="44.1" y="0"> </tspan><tspan x="49.1" y="0">represents</tspan><tspan class="st13" x="101.1" y="0"> </tspan><tspan class="st14" x="106" y="0">10</tspan><tspan class="st12" x="118.3" y="0"> </tspan><tspan x="123.2" y="0">cases</tspan></text>
    <text class="st3" transform="translate(87.8 26.5)"><tspan x="0" y="0">FDA</tspan><tspan class="st11" x="33.3" y="0"> </tspan><tspan x="41.5" y="0">Recalls</tspan><tspan class="st11" x="102.3" y="0"> </tspan><tspan x="110.4" y="0">by</tspan><tspan class="st11" x="129.6" y="0"> </tspan><tspan x="137.7" y="0">Product</tspan><tspan class="st11" x="201.9" y="0"> </tspan><tspan x="210" y="0">Type</tspan><tspan class="st11" x="250" y="0"> </tspan><tspan x="258.1" y="0">in</tspan><tspan class="st11" x="273.1" y="0"> </tspan><tspan x="281.3" y="0" xml:space="preserve">2024  </tspan></text>
    <text class="st4" transform="translate(88.2 419.1)"><tspan x="0" y="0">Source: U.S. Food &amp; Drug Administration </tspan></text>
    <text class="st4" transform="translate(292.3 419.1)"><tspan x="0" y="0">Graph made by Yating Wang</tspan></text>
  </g>
  <g id="ai2html-settings">
    <text id="ai2html-settings1" data-name="ai2html-settings" class="st10" transform="translate(-450 10.6)"><tspan x="0" y="0">ai2html-settings</tspan><tspan x="0" y="19">settings_version: 0.121.1</tspan><tspan x="0" y="38">image_format: auto</tspan><tspan x="0" y="57">responsiveness: fixed</tspan><tspan x="0" y="76">include_resizer_script: false</tspan><tspan x="0" y="95">use_lazy_loader: false</tspan><tspan x="0" y="114">output: one-file</tspan><tspan x="0" y="133">html_output_path: ai2html-output/</tspan><tspan x="0" y="152">image_output_path: ai2html-output/</tspan><tspan x="0" y="171">image_source_path: </tspan><tspan x="0" y="190">local_preview_template: </tspan><tspan x="0" y="209">png_number_of_colors: 128</tspan><tspan x="0" y="228">jpg_quality: 60</tspan><tspan x="0" y="247">headline: </tspan><tspan x="0" y="266">leadin: </tspan><tspan x="0" y="285">notes: </tspan><tspan x="0" y="304">sources: </tspan><tspan x="0" y="323">credit: </tspan></text>
  </g>
</svg>