<?xml version="1.0" encoding="UTF-8"?>
<svg id="Layer_1" xmlns="http://www.w3.org/2000/svg" xmlns:xlink="http://www.w3.org/1999/xlink" version="1.1" viewBox="0 0 576 432">
  <!-- Generator: Adobe Illustrator 29.3.1, SVG Export Plug-In . SVG Version: 2.1.0 Build 151)  -->
  <defs>
    <style>
      .st0 {
        fill: none;
      }

      .st1 {
        font-size: 11px;
      }

      .st1, .st2, .st3 {
        font-family: ArialMT, Arial;
        isolation: isolate;
      }

      .st4 {
        fill: #fc8d62;
      }

      .st4, .st5, .st6, .st7, .st8 {
        stroke: #fff;
        stroke-miterlimit: 10;
        stroke-width: .2px;
      }

      .st5 {
        fill: #e78ac3;
      }

      .st2 {
        font-size: 13.2px;
      }

      .st9 {
        letter-spacing: .3em;
      }

      .st3 {
        font-size: 8.8px;
      }

      .st6 {
        fill: #a6d854;
      }

      .st7 {
        fill: #8da0cb;
      }

      .st8 {
        fill: #66c2a5;
      }

      .st10 {
        letter-spacing: 0em;
      }

      .st11 {
        letter-spacing: 0em;
      }
    </style>
  </defs>
  <rect class="st0" width="576" height="432"/>
  <rect class="st0" width="576" height="432"/>
  <rect class="st0" x="51.8" width="472.5" height="432"/>
  <rect class="st0" width="576" height="432"/>
  <rect class="st0" x="73" y="39.1" width="337.5" height="371.6"/>
  <rect class="st5" x="88.4" y="56" width="27.9" height="27.9"/>
  <rect class="st5" x="119.4" y="56" width="27.9" height="27.9"/>
  <rect class="st5" x="150.4" y="56" width="27.9" height="27.9"/>
  <rect class="st5" x="181.4" y="56" width="27.9" height="27.9"/>
  <rect class="st5" x="212.3" y="56" width="27.9" height="27.9"/>
  <rect class="st5" x="243.3" y="56" width="27.9" height="27.9"/>
  <rect class="st5" x="274.3" y="56" width="27.9" height="27.9"/>
  <rect class="st5" x="305.3" y="56" width="27.9" height="27.9"/>
  <rect class="st5" x="336.3" y="56" width="27.9" height="27.9"/>
  <rect class="st5" x="367.3" y="56" width="27.9" height="27.9"/>
  <rect class="st5" x="88.4" y="87" width="27.9" height="27.9"/>
  <rect class="st5" x="119.4" y="87" width="27.9" height="27.9"/>
  <rect class="st5" x="150.4" y="87" width="27.9" height="27.9"/>
  <rect class="st5" x="181.4" y="87" width="27.9" height="27.9"/>
  <rect class="st5" x="212.3" y="87" width="27.9" height="27.9"/>
  <rect class="st5" x="243.3" y="87" width="27.9" height="27.9"/>
  <rect class="st5" x="274.3" y="87" width="27.9" height="27.9"/>
  <rect class="st5" x="305.3" y="87" width="27.9" height="27.9"/>
  <rect class="st5" x="336.3" y="87" width="27.9" height="27.9"/>
  <rect class="st5" x="367.3" y="87" width="27.9" height="27.9"/>
  <rect class="st5" x="88.4" y="118" width="27.9" height="27.9"/>
  <rect class="st5" x="119.4" y="118" width="27.9" height="27.9"/>
  <rect class="st5" x="150.4" y="118" width="27.9" height="27.9"/>
  <rect class="st5" x="181.4" y="118" width="27.9" height="27.9"/>
  <rect class="st5" x="212.3" y="118" width="27.9" height="27.9"/>
  <rect class="st5" x="243.3" y="118" width="27.9" height="27.9"/>
  <rect class="st5" x="274.3" y="118" width="27.9" height="27.9"/>
  <rect class="st5" x="305.3" y="118" width="27.9" height="27.9"/>
  <rect class="st5" x="336.3" y="118" width="27.9" height="27.9"/>
  <rect class="st5" x="367.3" y="118" width="27.9" height="27.9"/>
  <rect class="st5" x="88.4" y="149" width="27.9" height="27.9"/>
  <rect class="st5" x="119.4" y="149" width="27.9" height="27.9"/>
  <rect class="st5" x="150.4" y="149" width="27.9" height="27.9"/>
  <rect class="st5" x="181.4" y="149" width="27.9" height="27.9"/>
  <rect class="st5" x="212.3" y="149" width="27.9" height="27.9"/>
  <rect class="st5" x="243.3" y="149" width="27.9" height="27.9"/>
  <rect class="st5" x="274.3" y="149" width="27.9" height="27.9"/>
  <rect class="st5" x="305.3" y="149" width="27.9" height="27.9"/>
  <rect class="st5" x="336.3" y="149" width="27.9" height="27.9"/>
  <rect class="st5" x="367.3" y="149" width="27.9" height="27.9"/>
  <rect class="st5" x="88.4" y="180" width="27.9" height="27.9"/>
  <rect class="st4" x="119.4" y="180" width="27.9" height="27.9"/>
  <rect class="st4" x="150.4" y="180" width="27.9" height="27.9"/>
  <rect class="st4" x="181.4" y="180" width="27.9" height="27.9"/>
  <rect class="st4" x="212.3" y="180" width="27.9" height="27.9"/>
  <rect class="st4" x="243.3" y="180" width="27.9" height="27.9"/>
  <rect class="st4" x="274.3" y="180" width="27.9" height="27.9"/>
  <rect class="st4" x="305.3" y="180" width="27.9" height="27.9"/>
  <rect class="st4" x="336.3" y="180" width="27.9" height="27.9"/>
  <rect class="st4" x="367.3" y="180" width="27.9" height="27.9"/>
  <rect class="st4" x="88.4" y="211" width="27.9" height="27.9"/>
  <rect class="st4" x="119.4" y="211" width="27.9" height="27.9"/>
  <rect class="st4" x="150.4" y="211" width="27.9" height="27.9"/>
  <rect class="st4" x="181.4" y="211" width="27.9" height="27.9"/>
  <rect class="st4" x="212.3" y="211" width="27.9" height="27.9"/>
  <rect class="st4" x="243.3" y="211" width="27.9" height="27.9"/>
  <rect class="st4" x="274.3" y="211" width="27.9" height="27.9"/>
  <rect class="st4" x="305.3" y="211" width="27.9" height="27.9"/>
  <rect class="st4" x="336.3" y="211" width="27.9" height="27.9"/>
  <rect class="st4" x="367.3" y="211" width="27.9" height="27.9"/>
  <rect class="st4" x="88.4" y="242" width="27.9" height="27.9"/>
  <rect class="st4" x="119.4" y="242" width="27.9" height="27.9"/>
  <rect class="st4" x="150.4" y="242" width="27.9" height="27.9"/>
  <rect class="st4" x="181.4" y="242" width="27.9" height="27.9"/>
  <rect class="st4" x="212.3" y="242" width="27.9" height="27.9"/>
  <rect class="st4" x="243.3" y="242" width="27.9" height="27.9"/>
  <rect class="st4" x="274.3" y="242" width="27.9" height="27.9"/>
  <rect class="st4" x="305.3" y="242" width="27.9" height="27.9"/>
  <rect class="st4" x="336.3" y="242" width="27.9" height="27.9"/>
  <rect class="st4" x="367.3" y="242" width="27.9" height="27.9"/>
  <rect class="st4" x="88.4" y="273" width="27.9" height="27.9"/>
  <rect class="st4" x="119.4" y="273" width="27.9" height="27.9"/>
  <rect class="st7" x="150.4" y="273" width="27.9" height="27.9"/>
  <rect class="st7" x="181.4" y="273" width="27.9" height="27.9"/>
  <rect class="st7" x="212.3" y="273" width="27.9" height="27.9"/>
  <rect class="st7" x="243.3" y="273" width="27.9" height="27.9"/>
  <rect class="st7" x="274.3" y="273" width="27.9" height="27.9"/>
  <rect class="st7" x="305.3" y="273" width="27.9" height="27.9"/>
  <rect class="st7" x="336.3" y="273" width="27.9" height="27.9"/>
  <rect class="st7" x="367.3" y="273" width="27.9" height="27.9"/>
  <rect class="st7" x="88.4" y="304" width="27.9" height="27.9"/>
  <rect class="st7" x="119.4" y="304" width="27.9" height="27.9"/>
  <rect class="st7" x="150.4" y="304" width="27.9" height="27.9"/>
  <rect class="st7" x="181.4" y="304" width="27.9" height="27.9"/>
  <rect class="st7" x="212.3" y="304" width="27.9" height="27.9"/>
  <rect class="st7" x="243.3" y="304" width="27.9" height="27.9"/>
  <rect class="st8" x="274.3" y="304" width="27.9" height="27.9"/>
  <rect class="st8" x="305.3" y="304" width="27.9" height="27.9"/>
  <rect class="st8" x="336.3" y="304" width="27.9" height="27.9"/>
  <rect class="st8" x="367.3" y="304" width="27.9" height="27.9"/>
  <rect class="st8" x="88.4" y="334.9" width="27.9" height="27.9"/>
  <rect class="st8" x="119.4" y="334.9" width="27.9" height="27.9"/>
  <rect class="st8" x="150.4" y="334.9" width="27.9" height="27.9"/>
  <rect class="st8" x="181.4" y="334.9" width="27.9" height="27.9"/>
  <rect class="st8" x="212.3" y="334.9" width="27.9" height="27.9"/>
  <rect class="st8" x="243.3" y="334.9" width="27.9" height="27.9"/>
  <rect class="st8" x="274.3" y="334.9" width="27.9" height="27.9"/>
  <rect class="st8" x="305.3" y="334.9" width="27.9" height="27.9"/>
  <rect class="st6" x="336.3" y="334.9" width="27.9" height="27.9"/>
  <rect class="st6" x="367.3" y="334.9" width="27.9" height="27.9"/>
  <rect class="st6" x="88.4" y="365.9" width="27.9" height="27.9"/>
  <rect class="st0" width="576" height="432"/>
  <rect class="st8" x="427.1" y="240.8" width="17" height="17"/>
  <rect class="st4" x="427.1" y="207.1" width="17" height="17"/>
  <rect class="st7" x="427.1" y="224.3" width="17" height="17"/>
  <rect class="st5" x="427.1" y="189.6" width="17" height="17"/>
  <rect class="st6" x="427.1" y="257.9" width="17" height="17"/>
  <text class="st3" transform="translate(449.7 252.4)"><tspan x="0" y="0">Biologics</tspan></text>
  <text class="st3" transform="translate(449.7 218.7)"><tspan x="0" y="0">Devices</tspan></text>
  <text class="st3" transform="translate(449.7 236)"><tspan x="0" y="0">Drugs</tspan></text>
  <text class="st3" transform="translate(449.7 200.3)"><tspan x="0" y="0">Food/Cosmetics</tspan></text>
  <text class="st3" transform="translate(449.7 269.5)"><tspan class="st9" x="0" y="0">Veteri</tspan><tspan x="37.2" y="0">-</tspan></text>
  <text class="st1" transform="translate(90.8 49)"><tspan x="0" y="0">Each tile represents 10 recall cases</tspan></text>
  <text class="st2" transform="translate(101.8 14.9)"><tspan x="0" y="0">FDA</tspan><tspan class="st11" x="26.4" y="0"> </tspan><tspan x="30" y="0">Recalls</tspan><tspan class="st11" x="73.3" y="0"> </tspan><tspan x="77" y="0">by</tspan><tspan class="st11" x="90.9" y="0"> </tspan><tspan x="94.5" y="0">Product</tspan><tspan class="st10" x="140" y="0"> </tspan><tspan x="143.7" y="0">Type</tspan><tspan class="st11" x="173" y="0"> </tspan><tspan x="176.6" y="0">(2024)</tspan></text>
</svg>