<?xml version="1.0" encoding="UTF-8"?>
<svg id="Layer_1" xmlns="http://www.w3.org/2000/svg" xmlns:xlink="http://www.w3.org/1999/xlink" version="1.1" viewBox="0 0 645.3 288">
  <!-- Generator: Adobe Illustrator 29.3.1, SVG Export Plug-In . SVG Version: 2.1.0 Build 151)  -->
  <defs>
    <style>
      .st0 {
        fill: none;
      }

      .st1 {
        fill: #ded;
      }

      .st1, .st2 {
        stroke: #fff;
        stroke-miterlimit: 10;
        stroke-width: .2px;
      }

      .st3 {
        font-family: ArialMT, Arial;
        font-size: 15.5px;
      }

      .st3, .st4 {
        isolation: isolate;
      }

      .st2 {
        fill: #66c2a5;
      }

      .st4 {
        font-family: Arial-BoldMT, Arial;
        font-size: 23.2px;
        font-weight: 700;
      }
    </style>
  </defs>
  <rect class="st0" x="6.6" width="744" height="558"/>
  <rect class="st0" x="6.6" width="744" height="558"/>
  <rect class="st0" x="71.3" width="614.7" height="558"/>
  <rect class="st0" x="6.6" width="744" height="558"/>
  <rect class="st2" x="107.9" y="83.1" width="36.8" height="36.8"/>
  <rect class="st2" x="148.8" y="83.1" width="36.8" height="36.8"/>
  <rect class="st2" x="189.8" y="83.1" width="36.8" height="36.8"/>
  <rect class="st2" x="230.7" y="83.1" width="36.8" height="36.8"/>
  <rect class="st2" x="271.6" y="83.1" width="36.8" height="36.8"/>
  <rect class="st2" x="312.5" y="83.1" width="36.8" height="36.8"/>
  <rect class="st2" x="353.4" y="83.1" width="36.8" height="36.8"/>
  <rect class="st2" x="394.4" y="83.1" width="36.8" height="36.8"/>
  <rect class="st2" x="435.3" y="83.1" width="36.8" height="36.8"/>
  <rect class="st2" x="476.2" y="83.1" width="36.8" height="36.8"/>
  <rect class="st2" x="107.9" y="124" width="36.8" height="36.8"/>
  <rect class="st2" x="148.8" y="124" width="36.8" height="36.8"/>
  <rect class="st2" x="189.8" y="124" width="36.8" height="36.8"/>
  <rect class="st2" x="230.7" y="124" width="36.8" height="36.8"/>
  <rect class="st2" x="271.6" y="124" width="36.8" height="36.8"/>
  <rect class="st2" x="312.5" y="124" width="36.8" height="36.8"/>
  <rect class="st1" x="353.4" y="124" width="36.8" height="36.8"/>
  <rect class="st1" x="394.4" y="124" width="36.8" height="36.8"/>
  <rect class="st1" x="435.3" y="124" width="36.8" height="36.8"/>
  <rect class="st1" x="476.2" y="124" width="36.8" height="36.8"/>
  <rect class="st1" x="107.9" y="164.9" width="36.8" height="36.8"/>
  <rect class="st1" x="148.8" y="164.9" width="36.8" height="36.8"/>
  <rect class="st1" x="189.8" y="164.9" width="36.8" height="36.8"/>
  <rect class="st1" x="230.7" y="164.9" width="36.8" height="36.8"/>
  <rect class="st1" x="271.6" y="164.9" width="36.8" height="36.8"/>
  <rect class="st1" x="312.5" y="164.9" width="36.8" height="36.8"/>
  <rect class="st1" x="353.4" y="164.9" width="36.8" height="36.8"/>
  <rect class="st1" x="394.4" y="164.9" width="36.8" height="36.8"/>
  <rect class="st1" x="435.3" y="164.9" width="36.8" height="36.8"/>
  <rect class="st1" x="476.2" y="164.9" width="36.8" height="36.8"/>
  <rect class="st1" x="107.9" y="205.8" width="36.8" height="36.8"/>
  <rect class="st1" x="148.8" y="205.8" width="36.8" height="36.8"/>
  <rect class="st1" x="189.8" y="205.8" width="36.8" height="36.8"/>
  <rect class="st1" x="230.7" y="205.8" width="36.8" height="36.8"/>
  <rect class="st1" x="271.6" y="205.8" width="36.8" height="36.8"/>
  <rect class="st1" x="312.5" y="205.8" width="36.8" height="36.8"/>
  <rect class="st1" x="353.4" y="205.8" width="36.8" height="36.8"/>
  <rect class="st1" x="394.4" y="205.8" width="36.8" height="36.8"/>
  <rect class="st1" x="435.3" y="205.8" width="36.8" height="36.8"/>
  <rect class="st1" x="476.2" y="205.8" width="36.8" height="36.8"/>
  <rect class="st0" x="-22.7" width="744" height="290.6"/>
  <text class="st3" transform="translate(107.9 66)"><tspan x="0" y="0">Each tile represents 10 recall cases</tspan></text>
  <text class="st4" transform="translate(107.9 35.5)"><tspan x="0" y="0" xml:space="preserve">39 Percent of Food Recalls are Class I  </tspan></text>
</svg>