<?xml version="1.0" encoding="UTF-8"?>
<svg id="Layer_1" xmlns="http://www.w3.org/2000/svg" xmlns:xlink="http://www.w3.org/1999/xlink" version="1.1" viewBox="0 0 558 240">
  <!-- Generator: Adobe Illustrator 29.3.1, SVG Export Plug-In . SVG Version: 2.1.0 Build 151)  -->
  <defs>
    <style>
      .st0 {
        fill: none;
      }

      .st1 {
        font-family: Arial-BoldMT, Arial;
        font-size: 19px;
        font-weight: 700;
      }

      .st1, .st2 {
        isolation: isolate;
      }

      .st3 {
        letter-spacing: .3em;
      }

      .st4 {
        letter-spacing: .3em;
      }

      .st2 {
        font-family: ArialMT, Arial;
        font-size: 14px;
      }

      .st5 {
        fill: #deeed8;
      }

      .st5, .st6 {
        stroke: #fff;
        stroke-miterlimit: 10;
        stroke-width: .2px;
      }

      .st6 {
        fill: #66c2a5;
      }
    </style>
  </defs>
  <rect class="st0" x="78" width="480" height="480"/>
  <rect class="st0" x="78" width="480" height="480"/>
  <rect class="st0" x="78" y="15.1" width="480" height="449.8"/>
  <rect class="st0" x="78" width="480" height="480"/>
  <rect class="st6" x="106.6" y="85.2" width="28.8" height="28.8"/>
  <rect class="st6" x="138.6" y="85.2" width="28.9" height="28.8"/>
  <rect class="st6" x="170.7" y="85.2" width="28.8" height="28.8"/>
  <rect class="st6" x="202.7" y="85.2" width="28.8" height="28.8"/>
  <rect class="st6" x="234.8" y="85.2" width="28.9" height="28.8"/>
  <rect class="st6" x="266.9" y="85.2" width="28.9" height="28.8"/>
  <rect class="st6" x="298.9" y="85.2" width="28.9" height="28.8"/>
  <rect class="st6" x="331" y="85.2" width="28.9" height="28.8"/>
  <rect class="st6" x="363" y="85.2" width="28.9" height="28.8"/>
  <rect class="st6" x="395.1" y="85.2" width="28.9" height="28.8"/>
  <rect class="st6" x="106.6" y="117.3" width="28.8" height="28.8"/>
  <rect class="st6" x="138.6" y="117.3" width="28.9" height="28.8"/>
  <rect class="st6" x="170.7" y="117.3" width="28.8" height="28.8"/>
  <rect class="st6" x="202.7" y="117.3" width="28.8" height="28.8"/>
  <rect class="st6" x="234.8" y="117.3" width="28.9" height="28.8"/>
  <rect class="st6" x="266.9" y="117.3" width="28.9" height="28.8"/>
  <rect class="st5" x="298.9" y="117.3" width="28.9" height="28.8"/>
  <rect class="st5" x="331" y="117.3" width="28.9" height="28.8"/>
  <rect class="st5" x="363" y="117.3" width="28.9" height="28.8"/>
  <rect class="st5" x="395.1" y="117.3" width="28.9" height="28.8"/>
  <rect class="st5" x="106.6" y="149.3" width="28.8" height="28.9"/>
  <rect class="st5" x="138.6" y="149.3" width="28.9" height="28.9"/>
  <rect class="st5" x="170.7" y="149.3" width="28.8" height="28.9"/>
  <rect class="st5" x="202.7" y="149.3" width="28.8" height="28.9"/>
  <rect class="st5" x="234.8" y="149.3" width="28.9" height="28.9"/>
  <rect class="st5" x="266.9" y="149.3" width="28.9" height="28.9"/>
  <rect class="st5" x="298.9" y="149.3" width="28.9" height="28.9"/>
  <rect class="st5" x="331" y="149.3" width="28.9" height="28.9"/>
  <rect class="st5" x="363" y="149.3" width="28.9" height="28.9"/>
  <rect class="st5" x="395.1" y="149.3" width="28.9" height="28.9"/>
  <rect class="st5" x="106.6" y="181.4" width="28.8" height="28.9"/>
  <rect class="st5" x="138.6" y="181.4" width="28.9" height="28.9"/>
  <rect class="st5" x="170.7" y="181.4" width="28.8" height="28.9"/>
  <rect class="st5" x="202.7" y="181.4" width="28.8" height="28.9"/>
  <rect class="st5" x="234.8" y="181.4" width="28.9" height="28.9"/>
  <rect class="st5" x="266.9" y="181.4" width="28.9" height="28.9"/>
  <rect class="st5" x="298.9" y="181.4" width="28.9" height="28.9"/>
  <rect class="st5" x="331" y="181.4" width="28.9" height="28.9"/>
  <rect class="st5" x="363" y="181.4" width="28.9" height="28.9"/>
  <rect class="st5" x="395.1" y="181.4" width="28.9" height="28.9"/>
  <rect class="st0" x="78" width="480" height="480"/>
  <text class="st2" transform="translate(90.7 61.3)"><tspan x="0" y="0">Each tile represents 10 recall cases</tspan></text>
  <text class="st1" transform="translate(90.7 38.3)"><tspan x="0" y="0">39</tspan><tspan class="st4" x="21.1" y="0"> </tspan><tspan x="31.2" y="0">Percent</tspan><tspan class="st3" x="100.9" y="0"> </tspan><tspan x="111" y="0">of</tspan><tspan class="st4" x="128.9" y="0"> </tspan><tspan x="138.9" y="0">Food</tspan><tspan class="st4" x="185.4" y="0"> </tspan><tspan x="195.4" y="0">Recalls</tspan><tspan class="st4" x="262" y="0"> </tspan><tspan x="272" y="0">are</tspan><tspan class="st3" x="300.6" y="0"> </tspan><tspan x="310.6" y="0">Class</tspan><tspan class="st4" x="361.3" y="0"> </tspan><tspan x="371.4" y="0">I </tspan></text>
</svg>