<?xml version="1.0" encoding="UTF-8"?>
<svg id="Layer_1" xmlns="http://www.w3.org/2000/svg" xmlns:xlink="http://www.w3.org/1999/xlink" version="1.1" viewBox="0 0 576 432">
  <!-- Generator: Adobe Illustrator 29.3.1, SVG Export Plug-In . SVG Version: 2.1.0 Build 151)  -->
  <defs>
    <style>
      .st0 {
        fill: none;
      }

      .st1 {
        font-family: Arial-BoldMT, Arial;
        font-size: 18px;
        font-weight: 700;
      }

      .st1, .st2, .st3, .st4 {
        isolation: isolate;
      }

      .st2 {
        font-size: 12.7px;
      }

      .st2, .st3, .st4 {
        font-family: ArialMT, Arial;
      }

      .st5 {
        fill: #fc8d62;
      }

      .st5, .st6, .st7, .st8, .st9 {
        stroke: #fff;
        stroke-miterlimit: 10;
        stroke-width: .2px;
      }

      .st6 {
        fill: #e78ac3;
      }

      .st10 {
        letter-spacing: .3em;
      }

      .st3 {
        font-size: 12px;
      }

      .st11 {
        letter-spacing: .2em;
      }

      .st12 {
        letter-spacing: .2em;
      }

      .st13 {
        letter-spacing: 0em;
      }

      .st4 {
        font-size: 9px;
      }

      .st7 {
        fill: #a6d854;
      }

      .st8 {
        fill: #8da0cb;
      }

      .st9 {
        fill: #66c2a5;
      }

      .st14 {
        letter-spacing: 0em;
      }

      .st15 {
        letter-spacing: 0em;
      }
    </style>
  </defs>
  <rect class="st0" width="576" height="432"/>
  <rect class="st0" width="576" height="432"/>
  <rect class="st0" x="65.9" width="444.3" height="432"/>
  <rect class="st0" width="576" height="432"/>
  <rect class="st0" x="78.6" y="48.6" width="313.4" height="345"/>
  <rect class="st9" x="92.8" y="64.3" width="25.9" height="25.9"/>
  <rect class="st9" x="121.6" y="64.3" width="25.9" height="25.9"/>
  <rect class="st9" x="150.4" y="64.3" width="25.9" height="25.9"/>
  <rect class="st9" x="179.1" y="64.3" width="25.9" height="25.9"/>
  <rect class="st9" x="207.9" y="64.3" width="25.9" height="25.9"/>
  <rect class="st9" x="236.7" y="64.3" width="25.9" height="25.9"/>
  <rect class="st9" x="265.5" y="64.3" width="25.9" height="25.9"/>
  <rect class="st9" x="294.2" y="64.3" width="25.9" height="25.9"/>
  <rect class="st9" x="323" y="64.3" width="25.9" height="25.9"/>
  <rect class="st9" x="351.8" y="64.3" width="25.9" height="25.9"/>
  <rect class="st9" x="92.8" y="93.1" width="25.9" height="25.9"/>
  <rect class="st9" x="121.6" y="93.1" width="25.9" height="25.9"/>
  <rect class="st9" x="150.4" y="93.1" width="25.9" height="25.9"/>
  <rect class="st9" x="179.1" y="93.1" width="25.9" height="25.9"/>
  <rect class="st9" x="207.9" y="93.1" width="25.9" height="25.9"/>
  <rect class="st9" x="236.7" y="93.1" width="25.9" height="25.9"/>
  <rect class="st9" x="265.5" y="93.1" width="25.9" height="25.9"/>
  <rect class="st9" x="294.2" y="93.1" width="25.9" height="25.9"/>
  <rect class="st9" x="323" y="93.1" width="25.9" height="25.9"/>
  <rect class="st9" x="351.8" y="93.1" width="25.9" height="25.9"/>
  <rect class="st9" x="92.8" y="121.8" width="25.9" height="25.9"/>
  <rect class="st9" x="121.6" y="121.8" width="25.9" height="25.9"/>
  <rect class="st9" x="150.4" y="121.8" width="25.9" height="25.9"/>
  <rect class="st9" x="179.1" y="121.8" width="25.9" height="25.9"/>
  <rect class="st9" x="207.9" y="121.8" width="25.9" height="25.9"/>
  <rect class="st9" x="236.7" y="121.8" width="25.9" height="25.9"/>
  <rect class="st9" x="265.5" y="121.8" width="25.9" height="25.9"/>
  <rect class="st9" x="294.2" y="121.8" width="25.9" height="25.9"/>
  <rect class="st9" x="323" y="121.8" width="25.9" height="25.9"/>
  <rect class="st9" x="351.8" y="121.8" width="25.9" height="25.9"/>
  <rect class="st9" x="92.8" y="150.6" width="25.9" height="25.9"/>
  <rect class="st9" x="121.6" y="150.6" width="25.9" height="25.9"/>
  <rect class="st9" x="150.4" y="150.6" width="25.9" height="25.9"/>
  <rect class="st9" x="179.1" y="150.6" width="25.9" height="25.9"/>
  <rect class="st9" x="207.9" y="150.6" width="25.9" height="25.9"/>
  <rect class="st9" x="236.7" y="150.6" width="25.9" height="25.9"/>
  <rect class="st9" x="265.5" y="150.6" width="25.9" height="25.9"/>
  <rect class="st9" x="294.2" y="150.6" width="25.9" height="25.9"/>
  <rect class="st9" x="323" y="150.6" width="25.9" height="25.9"/>
  <rect class="st9" x="351.8" y="150.6" width="25.9" height="25.9"/>
  <rect class="st9" x="92.8" y="179.4" width="25.9" height="25.9"/>
  <rect class="st5" x="121.6" y="179.4" width="25.9" height="25.9"/>
  <rect class="st5" x="150.4" y="179.4" width="25.9" height="25.9"/>
  <rect class="st5" x="179.1" y="179.4" width="25.9" height="25.9"/>
  <rect class="st5" x="207.9" y="179.4" width="25.9" height="25.9"/>
  <rect class="st5" x="236.7" y="179.4" width="25.9" height="25.9"/>
  <rect class="st5" x="265.5" y="179.4" width="25.9" height="25.9"/>
  <rect class="st5" x="294.2" y="179.4" width="25.9" height="25.9"/>
  <rect class="st5" x="323" y="179.4" width="25.9" height="25.9"/>
  <rect class="st5" x="351.8" y="179.4" width="25.9" height="25.9"/>
  <rect class="st5" x="92.8" y="208.2" width="25.9" height="25.9"/>
  <rect class="st5" x="121.6" y="208.2" width="25.9" height="25.9"/>
  <rect class="st5" x="150.4" y="208.2" width="25.9" height="25.9"/>
  <rect class="st5" x="179.1" y="208.2" width="25.9" height="25.9"/>
  <rect class="st5" x="207.9" y="208.2" width="25.9" height="25.9"/>
  <rect class="st5" x="236.7" y="208.2" width="25.9" height="25.9"/>
  <rect class="st5" x="265.5" y="208.2" width="25.9" height="25.9"/>
  <rect class="st5" x="294.2" y="208.2" width="25.9" height="25.9"/>
  <rect class="st5" x="323" y="208.2" width="25.9" height="25.9"/>
  <rect class="st5" x="351.8" y="208.2" width="25.9" height="25.9"/>
  <rect class="st5" x="92.8" y="236.9" width="25.9" height="25.9"/>
  <rect class="st5" x="121.6" y="236.9" width="25.9" height="25.9"/>
  <rect class="st5" x="150.4" y="236.9" width="25.9" height="25.9"/>
  <rect class="st5" x="179.1" y="236.9" width="25.9" height="25.9"/>
  <rect class="st5" x="207.9" y="236.9" width="25.9" height="25.9"/>
  <rect class="st5" x="236.7" y="236.9" width="25.9" height="25.9"/>
  <rect class="st5" x="265.5" y="236.9" width="25.9" height="25.9"/>
  <rect class="st5" x="294.2" y="236.9" width="25.9" height="25.9"/>
  <rect class="st5" x="323" y="236.9" width="25.9" height="25.9"/>
  <rect class="st5" x="351.8" y="236.9" width="25.9" height="25.9"/>
  <rect class="st5" x="92.8" y="265.7" width="25.9" height="25.9"/>
  <rect class="st5" x="121.6" y="265.7" width="25.9" height="25.9"/>
  <rect class="st8" x="150.4" y="265.7" width="25.9" height="25.9"/>
  <rect class="st8" x="179.1" y="265.7" width="25.9" height="25.9"/>
  <rect class="st8" x="207.9" y="265.7" width="25.9" height="25.9"/>
  <rect class="st8" x="236.7" y="265.7" width="25.9" height="25.9"/>
  <rect class="st8" x="265.5" y="265.7" width="25.9" height="25.9"/>
  <rect class="st8" x="294.2" y="265.7" width="25.9" height="25.9"/>
  <rect class="st8" x="323" y="265.7" width="25.9" height="25.9"/>
  <rect class="st8" x="351.8" y="265.7" width="25.9" height="25.9"/>
  <rect class="st8" x="92.8" y="294.5" width="25.9" height="25.9"/>
  <rect class="st8" x="121.6" y="294.5" width="25.9" height="25.9"/>
  <rect class="st8" x="150.4" y="294.5" width="25.9" height="25.9"/>
  <rect class="st8" x="179.1" y="294.5" width="25.9" height="25.9"/>
  <rect class="st8" x="207.9" y="294.5" width="25.9" height="25.9"/>
  <rect class="st8" x="236.7" y="294.5" width="25.9" height="25.9"/>
  <rect class="st6" x="265.5" y="294.5" width="25.9" height="25.9"/>
  <rect class="st6" x="294.2" y="294.5" width="25.9" height="25.9"/>
  <rect class="st6" x="323" y="294.5" width="25.9" height="25.9"/>
  <rect class="st6" x="351.8" y="294.5" width="25.9" height="25.9"/>
  <rect class="st6" x="92.8" y="323.3" width="25.9" height="25.9"/>
  <rect class="st6" x="121.6" y="323.3" width="25.9" height="25.9"/>
  <rect class="st6" x="150.4" y="323.3" width="25.9" height="25.9"/>
  <rect class="st6" x="179.1" y="323.3" width="25.9" height="25.9"/>
  <rect class="st6" x="207.9" y="323.3" width="25.9" height="25.9"/>
  <rect class="st6" x="236.7" y="323.3" width="25.9" height="25.9"/>
  <rect class="st6" x="265.5" y="323.3" width="25.9" height="25.9"/>
  <rect class="st6" x="294.2" y="323.3" width="25.9" height="25.9"/>
  <rect class="st7" x="323" y="323.3" width="25.9" height="25.9"/>
  <rect class="st7" x="351.8" y="323.3" width="25.9" height="25.9"/>
  <rect class="st7" x="92.8" y="352" width="25.9" height="25.9"/>
  <rect class="st0" width="576" height="432"/>
  <rect class="st9" x="408.5" y="147.8" width="23.9" height="24.5"/>
  <rect class="st5" x="408.5" y="172.7" width="23.9" height="24.5"/>
  <rect class="st8" x="408.5" y="197.6" width="23.9" height="24.5"/>
  <rect class="st6" x="408.5" y="222.6" width="23.9" height="24.5"/>
  <rect class="st7" x="408.5" y="247.5" width="23.9" height="24.5"/>
  <text class="st2" transform="translate(440.3 164.6) scale(1 1)"><tspan x="0" y="0">Food/Cosmetics</tspan></text>
  <text class="st2" transform="translate(440.3 189.5) scale(1 1)"><tspan x="0" y="0">Devices</tspan></text>
  <text class="st2" transform="translate(440.3 214.5) scale(1 1)"><tspan x="0" y="0">Drugs</tspan></text>
  <text class="st2" transform="translate(440.3 239.4) scale(1 1)"><tspan x="0" y="0">Biologics</tspan></text>
  <text class="st2" transform="translate(440.3 264.4) scale(1 1)"><tspan class="st10" x="0" y="0">Veteri</tspan><tspan x="53.7" y="0">-</tspan></text>
  <text class="st3" transform="translate(92.6 48)"><tspan x="0" y="0">Each tile represents 10 recall cases</tspan></text>
  <text class="st1" transform="translate(92.6 29.9)"><tspan x="0" y="0">FDA Recalls by Product Type (2024)</tspan></text>
  <text class="st4" transform="translate(90.6 409)"><tspan x="0" y="0">Source:</tspan><tspan class="st12" x="31" y="0"> </tspan><tspan x="34.9" y="0">U.S.</tspan><tspan class="st12" x="52.4" y="0"> </tspan><tspan x="56.3" y="0">Food</tspan><tspan class="st11" x="76.8" y="0"> </tspan><tspan x="80.7" y="0">&amp;</tspan><tspan class="st12" x="86.7" y="0"> </tspan><tspan x="90.6" y="0">Drug</tspan><tspan class="st12" x="110.1" y="0"> </tspan><tspan x="114" y="0">Administration</tspan></text>
  <text class="st4" transform="translate(298.6 409)"><tspan x="0" y="0">Graph</tspan><tspan class="st14" x="25" y="0"> </tspan><tspan x="28.1" y="0">made</tspan><tspan class="st15" x="50.6" y="0"> </tspan><tspan class="st13" x="53.7" y="0">by</tspan><tspan class="st15" x="63.2" y="0"> </tspan><tspan x="66.3" y="0">Yating</tspan><tspan class="st14" x="91.8" y="0"> </tspan><tspan x="94.9" y="0">Wang</tspan></text>
</svg>